<?xml version="1.0" encoding="utf-8"?>
<!-- Generator: Adobe Illustrator 19.1.0, SVG Export Plug-In . SVG Version: 6.00 Build 0)  -->
<svg version="1.1" id="Layer_1" xmlns="http://www.w3.org/2000/svg" xmlns:xlink="http://www.w3.org/1999/xlink" x="0px" y="0px"
	 viewBox="0 0 33.4 41.4" style="enable-background:new 0 0 33.4 41.4;" xml:space="preserve">
<style type="text/css">
	.st0{opacity:0.1;}
	.st1{fill:#1D4189;}
	.st2{fill:#FFFFFF;}
</style>
<ellipse class="st0" cx="16.7" cy="38.1" rx="10.6" ry="3.3"/>
<path class="st1" d="M33.4,16.7C33.4,7.5,25.9,0,16.7,0S0,7.5,0,16.7c0,8.3,6,15.1,13.9,16.4l2.8,5.1l2.8-5.1
	C27.3,31.8,33.4,24.9,33.4,16.7z"/>
<g>
	<path class="st2" d="M9.8,23.5l4.8-14.6h4.2l5.1,14.6h-4l-1-3.1h-4.4l-1,3.1H9.8z M15,17.6h3.1l-1.5-5.2c0,0-0.1,0-0.1,0L15,17.6z"
		/>
</g>
</svg>
