<?xml version="1.0" encoding="utf-8"?>
<!-- Generator: Adobe Illustrator 19.1.0, SVG Export Plug-In . SVG Version: 6.00 Build 0)  -->
<svg version="1.0" id="Layer_1" xmlns="http://www.w3.org/2000/svg" xmlns:xlink="http://www.w3.org/1999/xlink" x="0px" y="0px"
	 width="33.4px" height="41.4px" viewBox="-462 260.6 33.4 41.4" style="enable-background:new -462 260.6 33.4 41.4;"
	 xml:space="preserve">
<style type="text/css">
	.st0{opacity:0.1;enable-background:new    ;}
	.st1{fill:#1D4189;}
	.st2{fill:#FFFFFF;}
</style>
<ellipse class="st0" cx="-445.3" cy="298.7" rx="10.6" ry="3.3"/>
<path class="st1" d="M-428.6,277.3c0-9.2-7.5-16.7-16.7-16.7c-9.2,0-16.7,7.5-16.7,16.7c0,8.3,6,15.1,13.9,16.4l2.8,5.1l2.8-5.1
	C-434.7,292.4-428.6,285.5-428.6,277.3z"/>
<g>
	<path class="st2" d="M-441.9,279.8l1.9,2.5c-1.6,1.5-3.2,2.1-5.2,2.1c-4.1,0-6.8-2.6-6.8-7.5c0-5.8,3.6-7.7,6.9-7.7
		c2,0,3.9,0.9,5.3,3l-2.7,1.9c-0.9-1.2-1.7-1.8-2.8-1.8c-1.7,0-2.8,1.5-2.8,4.3s0.9,4.6,3.1,4.6
		C-443.9,281.3-442.9,280.7-441.9,279.8z"/>
</g>
</svg>
