<?xml version="1.0" encoding="utf-8"?>
<!-- Generator: Adobe Illustrator 19.1.0, SVG Export Plug-In . SVG Version: 6.00 Build 0)  -->
<svg version="1.1" id="Layer_1" xmlns="http://www.w3.org/2000/svg" xmlns:xlink="http://www.w3.org/1999/xlink" x="0px" y="0px"
	 viewBox="0 0 33.4 41.4" style="enable-background:new 0 0 33.4 41.4;" xml:space="preserve">
<style type="text/css">
	.st0{opacity:0.1;}
	.st1{fill:#1D4189;}
	.st2{fill:#FFFFFF;}
</style>
<ellipse class="st0" cx="16.7" cy="38.1" rx="10.6" ry="3.3"/>
<path class="st1" d="M33.4,16.7C33.4,7.5,25.9,0,16.7,0S0,7.5,0,16.7c0,8.3,6,15.1,13.9,16.4l2.8,5.1l2.8-5.1
	C27.3,31.8,33.4,24.9,33.4,16.7z"/>
<g>
	<path class="st2" d="M22.7,22.3c-1.2,0.9-3.2,1.5-5.5,1.5c-4.1,0-6.8-2.5-6.8-7.5c0-5.7,3.6-7.6,6.7-7.6c1.9,0,3.9,0.5,5.5,2.9
		l-2.8,2c-1-1.3-1.8-1.8-2.8-1.8c-1.7,0-2.8,1.4-2.8,4.2c0,2.9,0.9,4.7,3,4.7c0.5,0,1.2-0.1,1.5-0.3V16h3.8V22.3z"/>
</g>
</svg>
