<?xml version="1.0" encoding="utf-8"?>
<!-- Generator: Adobe Illustrator 19.1.0, SVG Export Plug-In . SVG Version: 6.00 Build 0)  -->
<svg version="1.0" id="Layer_1" xmlns="http://www.w3.org/2000/svg" xmlns:xlink="http://www.w3.org/1999/xlink" x="0px" y="0px"
	 width="33.4px" height="41.4px" viewBox="-462 260.6 33.4 41.4" style="enable-background:new -462 260.6 33.4 41.4;"
	 xml:space="preserve">
<style type="text/css">
	.st0{opacity:0.1;enable-background:new    ;}
	.st1{fill:#1D4189;}
	.st2{fill:#FFFFFF;}
</style>
<ellipse class="st0" cx="-445.3" cy="298.7" rx="10.6" ry="3.3"/>
<path class="st1" d="M-428.6,277.3c0-9.2-7.5-16.7-16.7-16.7c-9.2,0-16.7,7.5-16.7,16.7c0,8.3,6,15.1,13.9,16.4l2.8,5.1l2.8-5.1
	C-434.7,292.4-428.6,285.5-428.6,277.3z"/>
<g>
	<path class="st2" d="M-444.9,269.5c2.6,0,4.9,0.8,4.9,3.8c0,1.3-0.7,2.3-1.7,3c1.4,0.6,2.4,1.6,2.4,3.4c0,2.9-2.1,4.5-6,4.5h-5.3
		v-14.7H-444.9z M-446.7,275.3h1.1c1.3,0,1.8-0.7,1.8-1.5c0-1.1-0.7-1.5-1.7-1.5h-1.2C-446.7,272.3-446.7,275.3-446.7,275.3z
		 M-446.7,281.2h1.4c1.5,0,2.1-0.7,2.1-1.7c0-1.1-0.7-1.6-2-1.6h-1.5C-446.7,277.9-446.7,281.2-446.7,281.2z"/>
</g>
</svg>
