<?xml version="1.0" encoding="utf-8"?>
<!-- Generator: Adobe Illustrator 19.1.0, SVG Export Plug-In . SVG Version: 6.00 Build 0)  -->
<svg version="1.0" id="Layer_1" xmlns="http://www.w3.org/2000/svg" xmlns:xlink="http://www.w3.org/1999/xlink" x="0px" y="0px"
	 width="33.4px" height="41.4px" viewBox="-462 260.6 33.4 41.4" style="enable-background:new -462 260.6 33.4 41.4;"
	 xml:space="preserve">
<style type="text/css">
	.st0{opacity:0.1;enable-background:new    ;}
	.st1{fill:#1D4189;}
	.st2{fill:#FFFFFF;}
</style>
<ellipse class="st0" cx="-445.3" cy="298.7" rx="10.6" ry="3.3"/>
<path class="st1" d="M-428.6,277.3c0-9.2-7.5-16.7-16.7-16.7c-9.2,0-16.7,7.5-16.7,16.7c0,8.3,6,15.1,13.9,16.4l2.8,5.1l2.8-5.1
	C-434.7,292.4-428.6,285.5-428.6,277.3z"/>
<g>
	<path class="st2" d="M-452.2,284.1l4.8-14.6h4.2l5.1,14.6h-4l-1-3.1h-4.4l-1,3.1H-452.2z M-447,278.2h3.1l-1.5-5.2h-0.1L-447,278.2
		z"/>
</g>
</svg>
