<?xml version="1.0" encoding="utf-8"?>
<!-- Generator: Adobe Illustrator 19.1.0, SVG Export Plug-In . SVG Version: 6.00 Build 0)  -->
<svg version="1.1" id="Layer_1" xmlns="http://www.w3.org/2000/svg" xmlns:xlink="http://www.w3.org/1999/xlink" x="0px" y="0px"
	 viewBox="0 0 33.4 41.4" style="enable-background:new 0 0 33.4 41.4;" xml:space="preserve">
<style type="text/css">
	.st0{opacity:0.1;}
	.st1{fill:#1D4189;}
	.st2{fill:#FFFFFF;}
</style>
<ellipse class="st0" cx="16.7" cy="38.1" rx="10.6" ry="3.3"/>
<path class="st1" d="M33.4,16.7C33.4,7.5,25.9,0,16.7,0S0,7.5,0,16.7c0,8.3,6,15.1,13.9,16.4l2.8,5.1l2.8-5.1
	C27.3,31.8,33.4,24.9,33.4,16.7z"/>
<g>
	<path class="st2" d="M17.1,8.9c2.6,0,4.9,0.8,4.9,3.8c0,1.3-0.7,2.3-1.7,3c1.4,0.6,2.4,1.6,2.4,3.4c0,2.9-2.1,4.5-6,4.5h-5.3V8.9
		H17.1z M15.3,14.7h1.1c1.3,0,1.8-0.7,1.8-1.5c0-1.1-0.7-1.5-1.7-1.5h-1.2V14.7z M15.3,20.6h1.4c1.5,0,2.1-0.7,2.1-1.7
		c0-1.1-0.7-1.6-2-1.6h-1.5V20.6z"/>
</g>
</svg>
