<?xml version="1.0" encoding="utf-8"?>
<!-- Generator: Adobe Illustrator 19.1.0, SVG Export Plug-In . SVG Version: 6.00 Build 0)  -->
<svg version="1.0" id="Layer_1" xmlns="http://www.w3.org/2000/svg" xmlns:xlink="http://www.w3.org/1999/xlink" x="0px" y="0px"
	 width="33.4px" height="41.4px" viewBox="-462 260.6 33.4 41.4" style="enable-background:new -462 260.6 33.4 41.4;"
	 xml:space="preserve">
<style type="text/css">
	.st0{opacity:0.1;enable-background:new    ;}
	.st1{fill:#1D4189;}
	.st2{fill:#FFFFFF;}
</style>
<ellipse class="st0" cx="-445.3" cy="298.7" rx="10.6" ry="3.3"/>
<path class="st1" d="M-428.6,277.3c0-9.2-7.5-16.7-16.7-16.7c-9.2,0-16.7,7.5-16.7,16.7c0,8.3,6,15.1,13.9,16.4l2.8,5.1l2.8-5.1
	C-434.7,292.4-428.6,285.5-428.6,277.3z"/>
<g>
	<path class="st2" d="M-451.1,269.5h5.1c4.4,0,7.1,2.2,7.1,6.8c0,5.7-3.3,7.8-7,7.8h-5.2C-451.1,284.1-451.1,269.5-451.1,269.5z
		 M-447.3,281.2h1.5c2,0,3.2-1.5,3.2-4.5c0-3.4-1.6-4.2-3.4-4.2h-1.2L-447.3,281.2L-447.3,281.2z"/>
</g>
</svg>
