<?xml version="1.0" encoding="utf-8"?>
<!-- Generator: Adobe Illustrator 19.1.0, SVG Export Plug-In . SVG Version: 6.00 Build 0)  -->
<svg version="1.1" id="Layer_1" xmlns="http://www.w3.org/2000/svg" xmlns:xlink="http://www.w3.org/1999/xlink" x="0px" y="0px"
	 viewBox="0 0 33.4 41.4" style="enable-background:new 0 0 33.4 41.4;" xml:space="preserve">
<style type="text/css">
	.st0{opacity:0.1;}
	.st1{fill:#1D4189;}
	.st2{fill:#FFFFFF;}
</style>
<ellipse class="st0" cx="16.7" cy="38.1" rx="10.6" ry="3.3"/>
<path class="st1" d="M33.4,16.7C33.4,7.5,25.9,0,16.7,0S0,7.5,0,16.7c0,8.3,6,15.1,13.9,16.4l2.8,5.1l2.8-5.1
	C27.3,31.8,33.4,24.9,33.4,16.7z"/>
<g>
	<path class="st2" d="M13,19.9c0.6,0.4,1.4,0.7,2.2,0.7c1,0,1.6-0.6,1.6-1.7v-10h3.8v9.7c0,0.6,0,1.5-0.1,2.1
		c-0.4,1.9-2.1,3.1-4.4,3.1c-1.5,0-3.1-0.5-4-1.1L13,19.9z"/>
</g>
</svg>
