<?xml version="1.0" encoding="utf-8"?>
<!-- Generator: Adobe Illustrator 19.1.0, SVG Export Plug-In . SVG Version: 6.00 Build 0)  -->
<svg version="1.1" id="Layer_1" xmlns="http://www.w3.org/2000/svg" xmlns:xlink="http://www.w3.org/1999/xlink" x="0px" y="0px"
	 viewBox="0 0 33.4 41.4" style="enable-background:new 0 0 33.4 41.4;" xml:space="preserve">
<style type="text/css">
	.st0{opacity:0.1;}
	.st1{fill:#1D4189;}
	.st2{fill:#FFFFFF;}
</style>
<ellipse class="st0" cx="16.7" cy="38.1" rx="10.6" ry="3.3"/>
<path class="st1" d="M33.4,16.7C33.4,7.5,25.9,0,16.7,0S0,7.5,0,16.7c0,8.3,6,15.1,13.9,16.4l2.8,5.1l2.8-5.1
	C27.3,31.8,33.4,24.9,33.4,16.7z"/>
<g>
	<path class="st2" d="M10.9,8.9h5.1c4.4,0,7.1,2.2,7.1,6.8c0,5.7-3.3,7.8-7,7.8h-5.2V8.9z M14.7,20.6h1.5c2,0,3.2-1.5,3.2-4.5
		c0-3.4-1.6-4.2-3.4-4.2h-1.2V20.6z"/>
</g>
</svg>
