<?xml version="1.0" encoding="utf-8"?>
<!-- Generator: Adobe Illustrator 19.1.0, SVG Export Plug-In . SVG Version: 6.00 Build 0)  -->
<svg version="1.1" id="Layer_1" xmlns="http://www.w3.org/2000/svg" xmlns:xlink="http://www.w3.org/1999/xlink" x="0px" y="0px"
	 viewBox="0 0 45.2 56.2" style="enable-background:new 0 0 45.2 56.2;" xml:space="preserve">
<style type="text/css">
	.st0{opacity:0.1;}
	.st1{fill:#6D6D6D;}
	.st2{fill:#FFFFFF;}
</style>
<ellipse class="st0" cx="22.6" cy="51.6" rx="14.3" ry="4.5"/>
<path class="st1" d="M45.2,22.6C45.2,10.1,35.1,0,22.6,0S0,10.1,0,22.6c0,11.2,8.2,20.5,18.9,22.3l3.7,6.9l3.7-6.9
	C37.1,43.1,45.2,33.8,45.2,22.6z"/>
<g>
	<path class="st2" d="M10.1,15v4.3c0,0.7,0.4,1,0.9,1c0.5,0,0.9-0.3,0.9-0.9V15h1.7v4.5c0,1.3-1.1,2.1-2.6,2.1
		c-1.7,0-2.6-0.7-2.6-2.3V15H10.1z"/>
	<path class="st2" d="M19.2,15v1.5h-2.8v1.1h2.3v1.5h-2.3v2.5h-1.7V15H19.2z"/>
	<path class="st2" d="M24.8,15v1.5H23v5.1h-1.7v-5.1h-1.7V15H24.8z"/>
	<path class="st2" d="M27.8,21.7c-1.8,0-2.9-1.1-2.9-3.4c0-2.5,1.6-3.4,3-3.4c1.5,0,2.8,0.9,2.8,3.4C30.8,20.5,29.6,21.7,27.8,21.7z
		 M27.9,20.3c0.9,0,1.2-1,1.2-1.9c0-0.8-0.2-2-1.2-2c-0.9,0-1.2,1-1.2,1.9C26.7,19.2,26.9,20.3,27.9,20.3z"/>
	<path class="st2" d="M37.1,15v6.5h-1.5l-2.2-3.6c0,0,0,0,0,0v3.6h-1.7V15h1.6l2.2,3.6c0,0,0,0,0,0V15H37.1z"/>
	<path class="st2" d="M12.9,27.9l0.9,1.1c-0.7,0.6-1.4,0.9-2.3,0.9c-1.8,0-3-1.1-3-3.3c0-2.6,1.6-3.4,3.1-3.4c0.9,0,1.7,0.4,2.4,1.4
		l-1.2,0.9c-0.4-0.5-0.8-0.8-1.2-0.8c-0.7,0-1.3,0.6-1.3,1.9c0,1.2,0.4,2,1.4,2C12,28.5,12.5,28.2,12.9,27.9z"/>
	<path class="st2" d="M16.8,29.9c-1.8,0-2.9-1.2-2.9-3.4c0-2.5,1.6-3.4,3-3.4c1.5,0,2.8,0.9,2.8,3.4C19.7,28.7,18.6,29.9,16.8,29.9z
		 M16.9,28.5c0.9,0,1.2-1,1.2-1.9c0-0.8-0.2-2-1.2-2c-0.9,0-1.2,1-1.2,1.9C15.6,27.4,15.8,28.5,16.9,28.5z"/>
	<path class="st2" d="M22.3,23.2v4.3c0,0.7,0.4,1,0.9,1c0.5,0,0.9-0.3,0.9-0.9v-4.3h1.7v4.5c0,1.3-1.1,2.1-2.6,2.1
		c-1.7,0-2.6-0.7-2.6-2.3v-4.4H22.3z"/>
	<path class="st2" d="M28.5,29.8h-1.7v-6.5h2.3c1.5,0,2.5,0.5,2.5,1.9c0,0.8-0.5,1.4-1,1.7c0.2,0.1,0.3,0.3,0.4,0.5l1.1,2.5h-1.8
		l-0.9-2.1c-0.1-0.2-0.3-0.4-0.5-0.4h-0.5V29.8z M29.2,26c0.5,0,0.8-0.3,0.8-0.8c0-0.5-0.3-0.7-0.9-0.7h-0.5V26H29.2z"/>
	<path class="st2" d="M37.4,23.2v1.5h-1.8v5.1h-1.7v-5.1h-1.7v-1.5H37.4z"/>
</g>
</svg>
