<?xml version="1.0" encoding="utf-8"?>
<!-- Generator: Adobe Illustrator 19.1.0, SVG Export Plug-In . SVG Version: 6.00 Build 0)  -->
<svg version="1.0" id="Layer_1" xmlns="http://www.w3.org/2000/svg" xmlns:xlink="http://www.w3.org/1999/xlink" x="0px" y="0px"
	 width="45.2px" height="56.2px" viewBox="-456 252.8 45.2 56.2" style="enable-background:new -456 252.8 45.2 56.2;"
	 xml:space="preserve">
<style type="text/css">
	.st0{opacity:0.1;enable-background:new    ;}
	.st1{fill:#6D6D6D;}
	.st2{fill:#FFFFFF;}
</style>
<ellipse class="st0" cx="-433.4" cy="304.4" rx="14.3" ry="4.5"/>
<path class="st1" d="M-410.8,275.4c0-12.5-10.1-22.6-22.6-22.6s-22.6,10.1-22.6,22.6c0,11.2,8.2,20.5,18.9,22.3l3.7,6.9l3.7-6.9
	C-418.9,295.9-410.8,286.6-410.8,275.4z"/>
<g>
	<path class="st2" d="M-445.9,267.8v4.3c0,0.7,0.4,1,0.9,1s0.9-0.3,0.9-0.9v-4.4h1.7v4.5c0,1.3-1.1,2.1-2.6,2.1
		c-1.7,0-2.6-0.7-2.6-2.3v-4.3H-445.9z"/>
	<path class="st2" d="M-436.8,267.8v1.5h-2.8v1.1h2.3v1.5h-2.3v2.5h-1.7v-6.6H-436.8z"/>
	<path class="st2" d="M-431.2,267.8v1.5h-1.8v5.1h-1.7v-5.1h-1.7v-1.5H-431.2z"/>
	<path class="st2" d="M-428.2,274.5c-1.8,0-2.9-1.1-2.9-3.4c0-2.5,1.6-3.4,3-3.4c1.5,0,2.8,0.9,2.8,3.4
		C-425.2,273.3-426.4,274.5-428.2,274.5z M-428.1,273.1c0.9,0,1.2-1,1.2-1.9c0-0.8-0.2-2-1.2-2c-0.9,0-1.2,1-1.2,1.9
		S-429.1,273.1-428.1,273.1z"/>
	<path class="st2" d="M-418.9,267.8v6.5h-1.5l-2.2-3.6l0,0v3.6h-1.7v-6.5h1.6l2.2,3.6l0,0v-3.6H-418.9z"/>
	<path class="st2" d="M-443.1,280.7l0.9,1.1c-0.7,0.6-1.4,0.9-2.3,0.9c-1.8,0-3-1.1-3-3.3c0-2.6,1.6-3.4,3.1-3.4
		c0.9,0,1.7,0.4,2.4,1.4l-1.2,0.9c-0.4-0.5-0.8-0.8-1.2-0.8c-0.7,0-1.3,0.6-1.3,1.9c0,1.2,0.4,2,1.4,2
		C-444,281.3-443.5,281-443.1,280.7z"/>
	<path class="st2" d="M-439.2,282.7c-1.8,0-2.9-1.2-2.9-3.4c0-2.5,1.6-3.4,3-3.4c1.5,0,2.8,0.9,2.8,3.4
		C-436.3,281.5-437.4,282.7-439.2,282.7z M-439.1,281.3c0.9,0,1.2-1,1.2-1.9c0-0.8-0.2-2-1.2-2c-0.9,0-1.2,1-1.2,1.9
		C-440.4,280.2-440.2,281.3-439.1,281.3z"/>
	<path class="st2" d="M-433.7,276v4.3c0,0.7,0.4,1,0.9,1s0.9-0.3,0.9-0.9v-4.3h1.7v4.5c0,1.3-1.1,2.1-2.6,2.1
		c-1.7,0-2.6-0.7-2.6-2.3V276H-433.7z"/>
	<path class="st2" d="M-427.5,282.6h-1.7v-6.5h2.3c1.5,0,2.5,0.5,2.5,1.9c0,0.8-0.5,1.4-1,1.7c0.2,0.1,0.3,0.3,0.4,0.5l1.1,2.5h-1.8
		l-0.9-2.1c-0.1-0.2-0.3-0.4-0.5-0.4h-0.5v2.4H-427.5z M-426.8,278.8c0.5,0,0.8-0.3,0.8-0.8s-0.3-0.7-0.9-0.7h-0.5v1.5H-426.8z"/>
	<path class="st2" d="M-418.6,276v1.5h-1.8v5.1h-1.7v-5.1h-1.7V276H-418.6z"/>
</g>
</svg>
