<?xml version="1.0" encoding="utf-8"?>
<!-- Generator: Adobe Illustrator 19.1.0, SVG Export Plug-In . SVG Version: 6.00 Build 0)  -->
<svg version="1.1" id="Layer_1" xmlns="http://www.w3.org/2000/svg" xmlns:xlink="http://www.w3.org/1999/xlink" x="0px" y="0px"
	 width="200px" height="200px" viewBox="0 0 200 200" style="enable-background:new 0 0 200 200;" xml:space="preserve">
<style type="text/css">
	.st0{fill:#FFFFFF;}
</style>
<g>
	<path class="st0" d="M25,192.6c-6.3,0-11.9,2.5-15.6,7.5h2.7c3.3-4,7.9-5.5,12.9-5.5s9.7,1.5,12.9,5.5h2.7
		C36.9,195.1,31.3,192.6,25,192.6z"/>
	<path class="st0" d="M16.7,200.1h4.7c1.1,0,2.3-0.5,3.6-0.5c1.2,0,2.4,0.5,3.6,0.5h4.7c-2.4-2-5.2-2.5-8.3-2.5
		C21.9,197.6,19.1,198.1,16.7,200.1z"/>
	<path class="st0" d="M75,192.6c-6.3,0-11.9,2.5-15.6,7.5h2.7c3.3-4,7.9-5.5,12.9-5.5s9.7,1.5,12.9,5.5h2.7
		C86.9,195.1,81.3,192.6,75,192.6z"/>
	<path class="st0" d="M66.7,200.1h4.7c1.1,0,2.3-0.5,3.6-0.5s2.4,0.5,3.6,0.5h4.7c-2.4-2-5.2-2.5-8.3-2.5S69.1,198.1,66.7,200.1z"/>
	<path class="st0" d="M125,192.6c-6.3,0-11.9,2.5-15.6,7.5h2.7c3.3-4,7.9-5.5,12.9-5.5c5.1,0,9.7,1.5,12.9,5.5h2.7
		C136.9,195.1,131.3,192.6,125,192.6z"/>
	<path class="st0" d="M116.7,200.1h4.7c1.1,0,2.3-0.5,3.6-0.5s2.4,0.5,3.6,0.5h4.7c-2.4-2-5.2-2.5-8.3-2.5
		C121.9,197.6,119.1,198.1,116.7,200.1z"/>
	<path class="st0" d="M175,192.6c-6.3,0-11.9,2.5-15.6,7.5h2.7c3.3-4,7.9-5.5,12.9-5.5c5.1,0,9.7,1.5,12.9,5.5h2.7
		C186.9,195.1,181.3,192.6,175,192.6z"/>
	<path class="st0" d="M166.7,200.1h4.7c1.1,0,2.3-0.5,3.6-0.5s2.4,0.5,3.6,0.5h4.7c-2.4-2-5.2-2.5-8.3-2.5
		C171.9,197.6,169.1,198.1,166.7,200.1z"/>
	<path class="st0" d="M200.1,7V5c-7,0-13.1,3.6-16.7,8.9c-1-0.3-1.9-0.6-3-0.9c4-6.6,11.7-11.1,19.7-11.1V0c-1,0-2.2,0.1-3.3,0.3
		c0-0.1-0.1-0.2-0.2-0.2h-2.4c0.1,0,0.2,0.3,0.4,0.5c-1,0.2-2,0.5-3,0.9c-0.3-0.5-0.7-1.4-1-1.4h-2.7c0.7,1,1.3,1.4,1.8,2.1
		c-0.9,0.4-1.8,0.9-2.7,1.4c-1-1.4-2.3-2.6-3.8-3.6h-4.7c2.8,1,5.2,2.4,6.8,4.7c-0.8,0.6-1.6,1.2-2.3,1.9c-1.8-2.5-4.7-4.1-8.1-4.1
		s-6.2,1.6-8.1,4.1c-0.7-0.7-1.5-1.2-2.3-1.8c1.7-2.2,4.1-3.7,6.8-4.7h-4.7c-1.5,1-2.7,2.1-3.8,3.5c-0.9-0.5-1.8-1-2.7-1.4
		c0.5-0.8,1.1-1.2,1.8-2.2h-2.7c-0.4,0-0.7,0.9-1,1.4c-1-0.3-2-0.6-3-0.8c0.1-0.2,0.2-0.5,0.4-0.5h-2.4c0,0-0.1,0.1-0.1,0.2
		C152.2,0.1,151.1,0,150,0c-1.1,0-2.2,0.1-3.2,0.3c0-0.1-0.1-0.2-0.1-0.2h-2.4c0.1,0,0.2,0.3,0.4,0.5c-1,0.2-2,0.5-3,0.9
		c-0.3-0.5-0.7-1.4-1-1.4h-2.7c0.7,1,1.3,1.4,1.8,2.1c-0.9,0.4-1.8,0.9-2.7,1.4c-1-1.4-2.3-2.6-3.8-3.6h-4.7c2.8,1,5.2,2.4,6.8,4.7
		c-0.8,0.6-1.6,1.2-2.3,1.9c-1.8-2.5-4.7-4.1-8.1-4.1c-3.3,0-6.2,1.6-8.1,4.1c-0.7-0.7-1.5-1.2-2.3-1.8c1.7-2.2,4.1-3.7,6.8-4.7
		h-4.7c-1.5,1-2.7,2.1-3.8,3.5c-0.9-0.5-1.8-1-2.7-1.4c0.5-0.8,1.1-1.2,1.8-2.2h-2.7c-0.4,0-0.7,0.9-1,1.4c-1-0.3-2-0.6-3-0.8
		c0.1-0.2,0.2-0.5,0.4-0.5h-2.4c0,0-0.1,0.1-0.1,0.2C102.2,0.1,101.1,0,100,0c-1.1,0-2.2,0.1-3.2,0.3c0-0.1-0.1-0.2-0.1-0.2h-2.4
		c0.1,0,0.2,0.3,0.4,0.5c-1,0.2-2,0.5-3,0.9c-0.3-0.5-0.7-1.4-1-1.4h-2.7c0.7,1,1.3,1.4,1.8,2.1c-0.9,0.4-1.8,0.9-2.7,1.4
		c-1-1.4-2.3-2.6-3.8-3.6h-4.7c2.8,1,5.2,2.4,6.8,4.7c-0.8,0.6-1.6,1.2-2.3,1.9c-1.8-2.5-4.7-4.1-8.1-4.1s-6.2,1.6-8.1,4.1
		c-0.7-0.7-1.5-1.2-2.3-1.8c1.7-2.2,4.1-3.7,6.8-4.7h-4.7c-1.5,1-2.7,2.1-3.8,3.5c-0.9-0.5-1.8-1-2.7-1.4c0.5-0.8,1.1-1.2,1.8-2.2
		h-2.7c-0.4,0-0.7,0.9-1,1.4c-1-0.3-2-0.6-3-0.8c0.1-0.2,0.2-0.5,0.4-0.5h-2.4c0,0-0.1,0.1-0.1,0.2C52.2,0.1,51.1,0,50,0
		c-1.1,0-2.2,0.1-3.2,0.3c0-0.1-0.1-0.2-0.1-0.2h-2.4c0.1,0,0.2,0.3,0.4,0.5c-1,0.2-2,0.5-3,0.9c-0.3-0.5-0.7-1.4-1-1.4h-2.7
		c0.7,1,1.3,1.4,1.8,2.1c-0.9,0.4-1.8,0.9-2.7,1.4c-1-1.4-2.3-2.6-3.8-3.6h-4.7c2.8,1,5.2,2.4,6.8,4.7c-0.8,0.6-1.6,1.2-2.3,1.9
		c-1.8-2.5-4.7-4.1-8.1-4.1c-3.3,0-6.2,1.6-8.1,4.1c-0.7-0.7-1.5-1.2-2.3-1.8c1.7-2.2,4.1-3.7,6.8-4.7h-4.7c-1.5,1-2.7,2.1-3.8,3.5
		c-0.9-0.5-1.8-1-2.7-1.4c0.5-0.8,1.1-1.2,1.8-2.2H9.4C9,0.1,8.7,1,8.4,1.5c-1-0.3-2-0.6-3-0.8c0.1-0.2,0.2-0.5,0.4-0.5H3.3
		c0,0,0,0.1-0.1,0.2C2.2,0.1,1.1,0,0.1,0v2c8,0,15.5,4.4,19.6,11.1c-1,0.2-2,0.5-3,0.9C13.2,8.6,7.1,5,0.1,5v2
		c6,0,11.4,3.1,14.7,7.7c-0.9,0.4-1.8,0.9-2.6,1.4c-2.7-3.7-7-6.1-12-6.1v2c4,0,8,2.1,10.3,5.2c-0.8,0.6-1.6,1.2-2.3,1.9
		c-1.8-2.5-5-4.1-8-4.1v2c3,0,5.1,1.4,6.6,3.6c-1.3,1.4-2.4,3-3.4,4.7C2.3,25.1,1.1,25,0.1,25v2c8,0,15.5,4.4,19.6,11.1
		c-1,0.2-2,0.5-3,0.9C13.2,33.6,7.1,30,0.1,30v2c6,0,11.4,3.1,14.7,7.7c-0.9,0.4-1.8,0.9-2.6,1.4c-2.7-3.7-7-6.1-12-6.1v2
		c4,0,8,2.1,10.3,5.2c-0.8,0.6-1.6,1.2-2.3,1.9c-1.8-2.5-5-4.1-8-4.1v2c3,0,5.1,1.4,6.6,3.6c-1.3,1.4-2.4,3-3.4,4.7
		C2.3,50.1,1.1,50,0.1,50v2c8,0,15.5,4.4,19.6,11.1c-1,0.2-2,0.5-3,0.9C13.2,58.6,7.1,55,0.1,55v2c6,0,11.4,3.1,14.7,7.7
		c-0.9,0.4-1.8,0.9-2.6,1.4c-2.7-3.7-7-6.1-12-6.1v2c4,0,8,2.1,10.3,5.2c-0.8,0.6-1.6,1.2-2.3,1.9c-1.8-2.5-5-4.1-8-4.1v2
		c3,0,5.1,1.4,6.6,3.6c-1.3,1.4-2.4,3-3.4,4.7C2.3,75.1,1.1,75,0.1,75v2c8,0,15.5,4.4,19.6,11.1c-1,0.2-2,0.5-3,0.9
		C13.2,83.6,7.1,80,0.1,80v2c6,0,11.4,3.1,14.7,7.7c-0.9,0.4-1.8,0.9-2.6,1.4c-2.7-3.7-7-6.1-12-6.1v2c4,0,8,2.1,10.3,5.2
		c-0.8,0.6-1.6,1.2-2.3,1.9c-1.8-2.5-5-4.1-8-4.1v2c3,0,5.1,1.4,6.6,3.6c-1.3,1.4-2.4,3-3.4,4.7c-1.1-0.1-2.2-0.2-3.2-0.2v2
		c8,0,15.5,4.4,19.6,11.1c-1,0.2-2,0.5-3,0.9c-3.6-5.4-9.6-8.9-16.6-8.9v2c6,0,11.4,3.1,14.7,7.7c-0.9,0.4-1.8,0.9-2.6,1.4
		c-2.7-3.7-7-6.1-12-6.1v2c4,0,8,2.1,10.3,5.2c-0.8,0.6-1.6,1.2-2.3,1.9c-1.8-2.5-5-4.1-8-4.1v2c3,0,5.1,1.4,6.6,3.6
		c-1.3,1.4-2.4,3-3.4,4.7c-1.1-0.1-2.2-0.2-3.2-0.2v2c8,0,15.5,4.4,19.6,11.1c-1,0.2-2,0.5-3,0.9c-3.6-5.4-9.6-8.9-16.6-8.9v2
		c6,0,11.4,3.1,14.7,7.7c-0.9,0.4-1.8,0.9-2.6,1.4c-2.7-3.7-7-6.1-12-6.1v2c4,0,8,2.1,10.3,5.2c-0.8,0.6-1.6,1.2-2.3,1.9
		c-1.8-2.5-5-4.1-8-4.1v2c3,0,5.1,1.4,6.6,3.6c-1.3,1.4-2.4,3-3.4,4.7c-1.1-0.1-2.2-0.2-3.2-0.2v2c8,0,15.5,4.4,19.6,11.1
		c-1,0.2-2,0.5-3,0.9c-3.6-5.4-9.6-8.9-16.6-8.9v2c6,0,11.4,3.1,14.7,7.7c-0.9,0.4-1.8,0.9-2.6,1.4c-2.7-3.7-7-6.1-12-6.1v2
		c4,0,8,2.1,10.3,5.2c-0.8,0.6-1.6,1.2-2.3,1.9c-1.8-2.5-5-4.1-8-4.1v2c3,0,5.1,1.4,6.6,3.6c-1.3,1.4-2.4,3-3.4,4.7
		c-1.1-0.1-2.2-0.2-3.2-0.2v2c8,0,15.6,4.4,19.6,11.1c-1,0.2-2,0.5-3,0.9c-3.6-5.4-9.6-8.9-16.6-8.9v2c6,0,11.4,3.1,14.7,7.7
		c-0.9,0.4-1.8,0.9-2.6,1.4c-2.7-3.7-7-6.1-12-6.1v2c4,0,8,2.1,10.3,5.2c-0.8,0.6-1.6,1.2-2.3,1.9c-1.8-2.5-5-4.1-8-4.1v2
		c3,0,5.1,1.5,6.6,3.6c-1.2,1.4-2.4,2.5-3.4,4.5h2.4c4.1-6,11.2-10.5,19.3-10.5c8.1,0,15.2,4.5,19.3,10.5h2.4c-0.9-2-2-3.2-3.3-4.5
		c1.4-2.1,3.9-3.6,6.6-3.6c2.8,0,5.2,1.5,6.6,3.6c-1.2,1.4-2.4,2.5-3.3,4.5h2.4c4.1-6,11.2-10.5,19.3-10.5c8.1,0,15.2,4.5,19.3,10.5
		h2.4c-0.9-2-2-3.2-3.3-4.5c1.4-2.1,3.9-3.6,6.6-3.6c2.8,0,5.2,1.5,6.6,3.6c-1.2,1.4-2.4,2.5-3.3,4.5h2.4c4.1-6,11.2-10.5,19.3-10.5
		s15.2,4.5,19.3,10.5h2.4c-0.9-2-2-3.2-3.3-4.5c1.4-2.1,3.9-3.6,6.6-3.6c2.8,0,5.2,1.5,6.6,3.6c-1.2,1.4-2.4,2.5-3.3,4.5h2.4
		c4.1-6,11.2-10.5,19.3-10.5c8.1,0,15.2,4.5,19.3,10.5h2.4c-0.9-2-2-3.2-3.2-4.5c1.4-2.1,3.7-3.6,6.7-3.6v-2c-3,0-6.3,1.6-8.1,4.1
		c-0.7-0.7-1.5-1.3-2.3-1.9c2.4-3.2,6.4-5.2,10.4-5.2v-2c-5,0-9.4,2.4-12.1,6.1c-0.9-0.5-1.7-1-2.6-1.4c3.3-4.7,8.8-7.7,14.8-7.7v-2
		c-7,0-13.1,3.6-16.7,8.9c-1-0.3-1.9-0.6-3-0.9c4-6.6,11.7-11.1,19.7-11.1v-2c-1,0-2.2,0.1-3.3,0.2c-1-1.7-2.1-3.2-3.4-4.7
		c1.4-2.1,3.7-3.6,6.7-3.6v-2c-3,0-6.3,1.6-8.1,4.1c-0.7-0.7-1.5-1.3-2.3-1.9c2.4-3.2,6.4-5.2,10.4-5.2v-2c-5,0-9.4,2.4-12.1,6.1
		c-0.9-0.5-1.7-1-2.6-1.4c3.3-4.7,8.8-7.7,14.8-7.7v-2c-7,0-13.1,3.6-16.7,8.9c-1-0.3-1.9-0.6-3-0.9c4-6.6,11.7-11.1,19.7-11.1v-2
		c-1,0-2.2,0.1-3.3,0.2c-1-1.7-2.1-3.2-3.4-4.7c1.4-2.1,3.7-3.6,6.7-3.6v-2c-3,0-6.3,1.6-8.1,4.1c-0.7-0.7-1.5-1.3-2.3-1.9
		c2.4-3.2,6.4-5.2,10.4-5.2v-2c-5,0-9.4,2.4-12.1,6.1c-0.9-0.5-1.7-1-2.6-1.4c3.3-4.7,8.8-7.7,14.8-7.7v-2c-7,0-13.1,3.6-16.7,8.9
		c-1-0.3-1.9-0.6-3-0.9c4-6.6,11.7-11.1,19.7-11.1v-2c-1,0-2.2,0.1-3.3,0.2c-1-1.7-2.1-3.2-3.4-4.7c1.4-2.1,3.7-3.6,6.7-3.6v-2
		c-3,0-6.3,1.6-8.1,4.1c-0.7-0.7-1.5-1.3-2.3-1.9c2.4-3.2,6.4-5.2,10.4-5.2v-2c-5,0-9.4,2.4-12.1,6.1c-0.9-0.5-1.7-1-2.6-1.4
		c3.3-4.7,8.8-7.7,14.8-7.7v-2c-7,0-13.1,3.6-16.7,8.9c-1-0.3-1.9-0.6-3-0.9c4-6.6,11.7-11.1,19.7-11.1v-2c-1,0-2.2,0.1-3.3,0.2
		c-1-1.7-2.1-3.2-3.4-4.7c1.4-2.1,3.7-3.6,6.7-3.6v-2c-3,0-6.3,1.6-8.1,4.1c-0.7-0.7-1.5-1.3-2.3-1.9c2.4-3.2,6.4-5.2,10.4-5.2v-2
		c-5,0-9.4,2.4-12.1,6.1c-0.9-0.5-1.7-1-2.6-1.4c3.3-4.7,8.8-7.7,14.8-7.7v-2c-7,0-13.1,3.6-16.7,8.9c-1-0.3-1.9-0.6-3-0.9
		c4-6.6,11.7-11.1,19.7-11.1v-2c-1,0-2.2,0.1-3.3,0.2c-1-1.7-2.1-3.2-3.4-4.7c1.4-2.1,3.7-3.6,6.7-3.6v-2c-3,0-6.3,1.6-8.1,4.1
		c-0.7-0.7-1.5-1.3-2.3-1.9c2.4-3.2,6.4-5.2,10.4-5.2v-2c-5,0-9.4,2.4-12.1,6.1c-0.9-0.5-1.7-1-2.6-1.4c3.3-4.7,8.8-7.7,14.8-7.7v-2
		c-7,0-13.1,3.6-16.7,8.9c-1-0.3-1.9-0.6-3-0.9c4-6.6,11.7-11.1,19.7-11.1v-2c-1,0-2.2,0.1-3.3,0.2c-1-1.7-2.1-3.2-3.4-4.7
		c1.4-2.1,3.7-3.6,6.7-3.6v-2c-3,0-6.3,1.6-8.1,4.1c-0.7-0.7-1.5-1.3-2.3-1.9c2.4-3.2,6.4-5.2,10.4-5.2v-2c-5,0-9.4,2.4-12.1,6.1
		c-0.9-0.5-1.7-1-2.6-1.4c3.3-4.7,8.8-7.7,14.8-7.7v-2c-7,0-13.1,3.6-16.7,8.9c-1-0.3-1.9-0.6-3-0.9c4-6.6,11.7-11.1,19.7-11.1v-2
		c-1,0-2.2,0.1-3.3,0.2c-1-1.7-2.1-3.2-3.4-4.7c1.4-2.1,3.7-3.6,6.7-3.6v-2c-3,0-6.3,1.6-8.1,4.1c-0.7-0.7-1.5-1.3-2.3-1.9
		c2.4-3.2,6.4-5.2,10.4-5.2v-2c-5,0-9.4,2.4-12.1,6.1c-0.9-0.5-1.7-1-2.6-1.4C188.6,10.1,194.1,7,200.1,7z M175,4.5
		c2.8,0,5.2,1.4,6.6,3.6c-1.3,1.4-2.4,3-3.4,4.7c-1.1-0.1-2.1-0.2-3.2-0.2c-1.1,0-2.2,0.1-3.2,0.2c-1-1.7-2.1-3.2-3.4-4.7
		C169.8,5.9,172.2,4.5,175,4.5z M150,2c8.3,0,15.6,4.4,19.7,11.1c-1,0.2-2,0.5-3,0.9C163.1,8.6,156.9,5,150,5s-13.1,3.6-16.6,8.9
		c-1-0.3-2-0.6-3-0.9C134.4,6.4,141.7,2,150,2z M175,22.5c-5,0-9.3,2.4-12.1,6.1c-0.9-0.5-1.8-1-2.7-1.4c3.3-4.7,8.7-7.7,14.7-7.7
		c6.1,0,11.5,3.1,14.7,7.7c-0.9,0.4-1.8,0.9-2.7,1.4C184.3,24.9,180,22.5,175,22.5z M169.7,38.1c-1,0.2-2,0.5-3,0.9
		c-3.6-5.4-9.7-8.9-16.6-8.9s-13.1,3.6-16.6,8.9c-1-0.3-2-0.6-3-0.9c4-6.6,11.3-11.1,19.7-11.1C158.3,27,165.6,31.4,169.7,38.1z
		 M175,47.5c-5,0-9.3,2.4-12.1,6.1c-0.9-0.5-1.8-1-2.7-1.4c3.3-4.7,8.7-7.7,14.7-7.7s11.5,3.1,14.7,7.7c-0.9,0.4-1.8,0.9-2.7,1.4
		C184.3,49.9,180,47.5,175,47.5z M169.7,63.1c-1,0.2-2,0.5-3,0.9c-3.6-5.4-9.7-8.9-16.6-8.9s-13.1,3.6-16.6,8.9c-1-0.3-2-0.6-3-0.9
		c4-6.6,11.3-11.1,19.7-11.1C158.3,52,165.6,56.4,169.7,63.1z M175,72.5c-5,0-9.3,2.4-12.1,6.1c-0.9-0.5-1.8-1-2.7-1.4
		c3.3-4.7,8.7-7.7,14.7-7.7s11.5,3.1,14.7,7.7c-0.9,0.4-1.8,0.9-2.7,1.4C184.3,74.9,180,72.5,175,72.5z M169.7,88.1
		c-1,0.2-2,0.5-3,0.9c-3.6-5.4-9.7-8.9-16.6-8.9s-13.1,3.6-16.6,8.9c-1-0.3-2-0.6-3-0.9c4-6.6,11.3-11.1,19.7-11.1
		C158.3,77,165.6,81.4,169.7,88.1z M175,97.5c-5,0-9.3,2.4-12.1,6.1c-0.9-0.5-1.8-1-2.7-1.4c3.3-4.7,8.7-7.7,14.7-7.7
		c6.1,0,11.5,3.1,14.7,7.7c-0.9,0.4-1.8,0.9-2.7,1.4C184.3,99.9,180,97.5,175,97.5z M169.7,113.1c-1,0.2-2,0.5-3,0.9
		c-3.6-5.4-9.7-8.9-16.6-8.9s-13.1,3.6-16.6,8.9c-1-0.3-2-0.6-3-0.9c4-6.6,11.3-11.1,19.7-11.1C158.3,102,165.6,106.4,169.7,113.1z
		 M175,122.5c-5,0-9.3,2.4-12.1,6.1c-0.9-0.5-1.8-1-2.7-1.4c3.3-4.7,8.7-7.7,14.7-7.7c6.1,0,11.5,3.1,14.7,7.7
		c-0.9,0.4-1.8,0.9-2.7,1.4C184.3,124.9,180,122.5,175,122.5z M169.7,138.1c-1,0.2-2,0.5-3,0.9c-3.6-5.4-9.7-8.9-16.6-8.9
		s-13.1,3.6-16.6,8.9c-1-0.3-2-0.6-3-0.9c4-6.6,11.3-11.1,19.7-11.1C158.3,127,165.6,131.4,169.7,138.1z M175,147.5
		c-5,0-9.3,2.4-12.1,6.1c-0.9-0.5-1.8-1-2.7-1.4c3.3-4.7,8.7-7.7,14.7-7.7c6.1,0,11.5,3.1,14.7,7.7c-0.9,0.4-1.8,0.9-2.7,1.4
		C184.3,149.9,180,147.5,175,147.5z M169.7,163.1c-1,0.2-2,0.5-3,0.9c-3.6-5.4-9.7-8.9-16.6-8.9s-13.1,3.6-16.6,8.9
		c-1-0.3-2-0.6-3-0.9c4-6.6,11.3-11.1,19.7-11.1C158.3,152,165.6,156.4,169.7,163.1z M175,172.5c-5,0-9.3,2.4-12.1,6.1
		c-0.9-0.5-1.8-1-2.7-1.4c3.3-4.7,8.7-7.7,14.7-7.7s11.5,3.1,14.7,7.7c-0.9,0.4-1.8,0.9-2.7,1.4C184.3,174.9,180,172.5,175,172.5z
		 M169.7,188.1c-1,0.2-2,0.5-3,0.9c-3.6-5.4-9.7-8.9-16.6-8.9s-13.1,3.6-16.6,8.9c-1-0.3-2-0.6-3-0.9c4-6.6,11.3-11.1,19.7-11.1
		C158.3,177,165.6,181.4,169.7,188.1z M150,185c-5,0-9.3,2.4-12.1,6.1c-0.9-0.5-1.8-1-2.7-1.4c3.3-4.7,8.7-7.7,14.7-7.7
		s11.5,3.1,14.7,7.7c-0.9,0.4-1.8,0.9-2.7,1.4C159.3,187.4,155,185,150,185z M100,185c-5,0-9.3,2.4-12.1,6.1c-0.9-0.5-1.8-1-2.7-1.4
		c3.3-4.7,8.7-7.7,14.7-7.7c6.1,0,11.5,3.1,14.7,7.7c-0.9,0.4-1.8,0.9-2.7,1.4C109.3,187.4,105,185,100,185z M100,180
		c-7,0-13.1,3.6-16.6,8.9c-1-0.3-2-0.6-3-0.9c4-6.6,11.3-11.1,19.7-11.1c8.3,0,15.6,4.4,19.7,11.1c-1,0.2-2,0.5-3,0.9
		C113.1,183.6,107,180,100,180z M50,185c-5,0-9.3,2.4-12.1,6.1c-0.9-0.5-1.8-1-2.7-1.4c3.3-4.7,8.7-7.7,14.7-7.7s11.5,3.1,14.7,7.7
		c-0.9,0.4-1.8,0.9-2.7,1.4C59.3,187.4,55,185,50,185z M50,180c-7,0-13.1,3.6-16.6,8.9c-1-0.3-2-0.6-3-0.9
		c4-6.6,11.3-11.1,19.7-11.1c8.3,0,15.6,4.4,19.7,11.1c-1,0.2-2,0.5-3,0.9C63.1,183.6,57,180,50,180z M25,172.5
		c-5,0-9.3,2.4-12.1,6.1c-0.9-0.5-1.8-1-2.7-1.4c3.3-4.7,8.7-7.7,14.7-7.7c6.1,0,11.5,3.1,14.7,7.7c-0.9,0.4-1.8,0.9-2.7,1.4
		C34.3,174.9,30,172.5,25,172.5z M50,152c8.3,0,15.6,4.4,19.7,11.1c-1,0.2-2,0.5-3,0.9c-3.6-5.4-9.7-8.9-16.6-8.9
		s-13.1,3.6-16.6,8.9c-1-0.3-2-0.6-3-0.9C34.4,156.4,41.7,152,50,152z M25,147.5c-5,0-9.3,2.4-12.1,6.1c-0.9-0.5-1.8-1-2.7-1.4
		c3.3-4.7,8.7-7.7,14.7-7.7c6.1,0,11.5,3.1,14.7,7.7c-0.9,0.4-1.8,0.9-2.7,1.4C34.3,149.9,30,147.5,25,147.5z M50,127
		c8.3,0,15.6,4.4,19.7,11.1c-1,0.2-2,0.5-3,0.9c-3.6-5.4-9.7-8.9-16.6-8.9s-13.1,3.6-16.6,8.9c-1-0.3-2-0.6-3-0.9
		C34.4,131.4,41.7,127,50,127z M25,122.5c-5,0-9.3,2.4-12.1,6.1c-0.9-0.5-1.8-1-2.7-1.4c3.3-4.7,8.7-7.7,14.7-7.7
		c6.1,0,11.5,3.1,14.7,7.7c-0.9,0.4-1.8,0.9-2.7,1.4C34.3,124.9,30,122.5,25,122.5z M50,102c8.3,0,15.6,4.4,19.7,11.1
		c-1,0.2-2,0.5-3,0.9c-3.6-5.4-9.7-8.9-16.6-8.9s-13.1,3.6-16.6,8.9c-1-0.3-2-0.6-3-0.9C34.4,106.4,41.7,102,50,102z M25,97.5
		c-5,0-9.3,2.4-12.1,6.1c-0.9-0.5-1.8-1-2.7-1.4c3.3-4.7,8.7-7.7,14.7-7.7c6.1,0,11.5,3.1,14.7,7.7c-0.9,0.4-1.8,0.9-2.7,1.4
		C34.3,99.9,30,97.5,25,97.5z M50,77c8.3,0,15.6,4.4,19.7,11.1c-1,0.2-2,0.5-3,0.9C63.1,83.6,56.9,80,50,80
		c-6.9,0-13.1,3.6-16.6,8.9c-1-0.3-2-0.6-3-0.9C34.4,81.4,41.7,77,50,77z M25,72.5c-5,0-9.3,2.4-12.1,6.1c-0.9-0.5-1.8-1-2.7-1.4
		c3.3-4.7,8.7-7.7,14.7-7.7c6.1,0,11.5,3.1,14.7,7.7c-0.9,0.4-1.8,0.9-2.7,1.4C34.3,74.9,30,72.5,25,72.5z M50,52
		c8.3,0,15.6,4.4,19.7,11.1c-1,0.2-2,0.5-3,0.9C63.1,58.6,56.9,55,50,55c-6.9,0-13.1,3.6-16.6,8.9c-1-0.3-2-0.6-3-0.9
		C34.4,56.4,41.7,52,50,52z M25,47.5c-5,0-9.3,2.4-12.1,6.1c-0.9-0.5-1.8-1-2.7-1.4c3.3-4.7,8.7-7.7,14.7-7.7
		c6.1,0,11.5,3.1,14.7,7.7c-0.9,0.4-1.8,0.9-2.7,1.4C34.3,49.9,30,47.5,25,47.5z M50,27c8.3,0,15.6,4.4,19.7,11.1
		c-1,0.2-2,0.5-3,0.9C63.1,33.6,56.9,30,50,30s-13.1,3.6-16.6,8.9c-1-0.3-2-0.6-3-0.9C34.4,31.4,41.7,27,50,27z M25,22.5
		c-5,0-9.3,2.4-12.1,6.1c-0.9-0.5-1.8-1-2.7-1.4c3.3-4.7,8.7-7.7,14.7-7.7c6.1,0,11.5,3.1,14.7,7.7c-0.9,0.4-1.8,0.9-2.7,1.4
		C34.3,24.9,30,22.5,25,22.5z M75,14.5c8.3,0,15.6,4.4,19.7,11.1c-1,0.2-2,0.5-3,0.9c-3.6-5.4-9.7-8.9-16.6-8.9s-13.1,3.6-16.6,8.9
		c-1-0.3-2-0.6-3-0.9C59.4,18.9,66.7,14.5,75,14.5z M125,14.5c8.3,0,15.6,4.4,19.7,11.1c-1,0.2-2,0.5-3,0.9
		c-3.6-5.4-9.7-8.9-16.6-8.9c-6.9,0-13.1,3.6-16.6,8.9c-1-0.3-2-0.6-3-0.9C109.4,18.9,116.7,14.5,125,14.5z M144.7,50.6
		c-1,0.2-2,0.5-3,0.9c-3.6-5.4-9.7-8.9-16.6-8.9c-6.9,0-13.1,3.6-16.6,8.9c-1-0.3-2-0.6-3-0.9c4-6.6,11.3-11.1,19.7-11.1
		S140.6,43.9,144.7,50.6z M144.7,75.6c-1,0.2-2,0.5-3,0.9c-3.6-5.4-9.7-8.9-16.6-8.9c-6.9,0-13.1,3.6-16.6,8.9c-1-0.3-2-0.6-3-0.9
		c4-6.6,11.3-11.1,19.7-11.1S140.6,68.9,144.7,75.6z M144.7,100.6c-1,0.2-2,0.5-3,0.9c-3.6-5.4-9.7-8.9-16.6-8.9
		c-6.9,0-13.1,3.6-16.6,8.9c-1-0.3-2-0.6-3-0.9c4-6.6,11.3-11.1,19.7-11.1S140.6,93.9,144.7,100.6z M144.7,125.6c-1,0.2-2,0.5-3,0.9
		c-3.6-5.4-9.7-8.9-16.6-8.9c-6.9,0-13.1,3.6-16.6,8.9c-1-0.3-2-0.6-3-0.9c4-6.6,11.3-11.1,19.7-11.1S140.6,118.9,144.7,125.6z
		 M144.7,150.6c-1,0.2-2,0.5-3,0.9c-3.6-5.4-9.7-8.9-16.6-8.9c-6.9,0-13.1,3.6-16.6,8.9c-1-0.3-2-0.6-3-0.9
		c4-6.6,11.3-11.1,19.7-11.1S140.6,143.9,144.7,150.6z M144.7,175.6c-1,0.2-2,0.5-3,0.9c-3.6-5.4-9.7-8.9-16.6-8.9
		c-6.9,0-13.1,3.6-16.6,8.9c-1-0.3-2-0.6-3-0.9c4-6.6,11.3-11.1,19.7-11.1S140.6,168.9,144.7,175.6z M137.1,178.6
		c-2.7-3.7-7.1-6.1-12.1-6.1c-5,0-9.3,2.4-12.1,6.1c-0.9-0.5-1.8-1-2.7-1.4c3.3-4.7,8.7-7.7,14.7-7.7c6.1,0,11.5,3.1,14.7,7.7
		C138.8,177.6,137.9,178.1,137.1,178.6z M87.1,178.6c-2.7-3.7-7.1-6.1-12.1-6.1s-9.3,2.4-12.1,6.1c-0.9-0.5-1.8-1-2.7-1.4
		c3.3-4.7,8.7-7.7,14.7-7.7s11.5,3.1,14.7,7.7C88.8,177.6,87.9,178.1,87.1,178.6z M91.6,176.4c-3.6-5.4-9.7-8.9-16.6-8.9
		s-13.1,3.6-16.6,8.9c-1-0.3-2-0.6-3-0.9c4-6.6,11.3-11.1,19.7-11.1c8.3,0,15.6,4.4,19.7,11.1C93.6,175.8,92.6,176.1,91.6,176.4z
		 M75,139.5c8.3,0,15.6,4.4,19.7,11.1c-1,0.2-2,0.5-3,0.9c-3.6-5.4-9.7-8.9-16.6-8.9s-13.1,3.6-16.6,8.9c-1-0.3-2-0.6-3-0.9
		C59.4,143.9,66.7,139.5,75,139.5z M75,114.5c8.3,0,15.6,4.4,19.7,11.1c-1,0.2-2,0.5-3,0.9c-3.6-5.4-9.7-8.9-16.6-8.9
		s-13.1,3.6-16.6,8.9c-1-0.3-2-0.6-3-0.9C59.4,118.9,66.7,114.5,75,114.5z M75,89.5c8.3,0,15.6,4.4,19.7,11.1c-1,0.2-2,0.5-3,0.9
		c-3.6-5.4-9.7-8.9-16.6-8.9c-6.9,0-13.1,3.6-16.6,8.9c-1-0.3-2-0.6-3-0.9C59.4,93.9,66.7,89.5,75,89.5z M75,64.5
		c8.3,0,15.6,4.4,19.7,11.1c-1,0.2-2,0.5-3,0.9c-3.6-5.4-9.7-8.9-16.6-8.9c-6.9,0-13.1,3.6-16.6,8.9c-1-0.3-2-0.6-3-0.9
		C59.4,68.9,66.7,64.5,75,64.5z M75,39.5c8.3,0,15.6,4.4,19.7,11.1c-1,0.2-2,0.5-3,0.9c-3.6-5.4-9.7-8.9-16.6-8.9
		c-6.9,0-13.1,3.6-16.6,8.9c-1-0.3-2-0.6-3-0.9C59.4,43.9,66.7,39.5,75,39.5z M108.1,19.1c-1.8-2.5-4.7-4.1-8.1-4.1
		c-3.3,0-6.2,1.6-8.1,4.1c-0.7-0.7-1.5-1.3-2.3-1.9C92,14.1,95.7,12,100,12c4.2,0,8,2.1,10.4,5.2C109.6,17.8,108.8,18.4,108.1,19.1z
		 M100,17c2.8,0,5.2,1.4,6.6,3.6c-1.3,1.4-2.4,3-3.4,4.7c-1.1-0.1-2.1-0.2-3.2-0.2c-1.1,0-2.2,0.1-3.2,0.2c-1-1.7-2.1-3.2-3.4-4.7
		C94.8,18.4,97.2,17,100,17z M100,27c8.3,0,15.6,4.4,19.7,11.1c-1,0.2-2,0.5-3,0.9c-3.6-5.4-9.7-8.9-16.6-8.9
		c-6.9,0-13.1,3.6-16.6,8.9c-1-0.3-2-0.6-3-0.9C84.4,31.4,91.7,27,100,27z M119.7,63.1c-1,0.2-2,0.5-3,0.9
		c-3.6-5.4-9.7-8.9-16.6-8.9c-6.9,0-13.1,3.6-16.6,8.9c-1-0.3-2-0.6-3-0.9C84.4,56.4,91.7,52,100,52C108.3,52,115.6,56.4,119.7,63.1
		z M119.7,88.1c-1,0.2-2,0.5-3,0.9c-3.6-5.4-9.7-8.9-16.6-8.9c-6.9,0-13.1,3.6-16.6,8.9c-1-0.3-2-0.6-3-0.9
		C84.4,81.4,91.7,77,100,77C108.3,77,115.6,81.4,119.7,88.1z M119.7,113.1c-1,0.2-2,0.5-3,0.9c-3.6-5.4-9.7-8.9-16.6-8.9
		c-6.9,0-13.1,3.6-16.6,8.9c-1-0.3-2-0.6-3-0.9c4-6.6,11.3-11.1,19.7-11.1C108.3,102,115.6,106.4,119.7,113.1z M119.7,138.1
		c-1,0.2-2,0.5-3,0.9c-3.6-5.4-9.7-8.9-16.6-8.9c-6.9,0-13.1,3.6-16.6,8.9c-1-0.3-2-0.6-3-0.9c4-6.6,11.3-11.1,19.7-11.1
		C108.3,127,115.6,131.4,119.7,138.1z M119.7,163.1c-1,0.2-2,0.5-3,0.9c-3.6-5.4-9.7-8.9-16.6-8.9c-6.9,0-13.1,3.6-16.6,8.9
		c-1-0.3-2-0.6-3-0.9c4-6.6,11.3-11.1,19.7-11.1C108.3,152,115.6,156.4,119.7,163.1z M108.1,169.1c-1.8-2.5-4.7-4.1-8.1-4.1
		c-3.3,0-6.2,1.6-8.1,4.1c-0.7-0.7-1.5-1.3-2.3-1.9c2.4-3.2,6.1-5.2,10.4-5.2c4.3,0,8,2.1,10.4,5.2
		C109.6,167.8,108.8,168.4,108.1,169.1z M112.1,166.1c-2.7-3.7-7.1-6.1-12.1-6.1c-5,0-9.3,2.4-12.1,6.1c-0.9-0.5-1.8-1-2.7-1.4
		c3.3-4.7,8.7-7.7,14.7-7.7c6.1,0,11.5,3.1,14.7,7.7C113.8,165.1,112.9,165.6,112.1,166.1z M100,150c-1.1,0-2.2,0.1-3.2,0.2
		c-1-1.7-2.1-3.2-3.4-4.7c1.4-2.1,3.9-3.6,6.6-3.6c2.8,0,5.2,1.4,6.6,3.6c-1.3,1.4-2.4,3-3.4,4.7C102.2,150.1,101.1,150,100,150z
		 M108.1,144.1c-1.8-2.5-4.7-4.1-8.1-4.1c-3.3,0-6.2,1.6-8.1,4.1c-0.7-0.7-1.5-1.3-2.3-1.9c2.4-3.2,6.1-5.2,10.4-5.2s8,2.1,10.4,5.2
		C109.6,142.8,108.8,143.4,108.1,144.1z M112.1,141.1c-2.7-3.7-7.1-6.1-12.1-6.1c-5,0-9.3,2.4-12.1,6.1c-0.9-0.5-1.8-1-2.7-1.4
		c3.3-4.7,8.7-7.7,14.7-7.7c6.1,0,11.5,3.1,14.7,7.7C113.8,140.1,112.9,140.6,112.1,141.1z M100,125c-1.1,0-2.2,0.1-3.2,0.2
		c-1-1.7-2.1-3.2-3.4-4.7c1.4-2.1,3.9-3.6,6.6-3.6c2.8,0,5.2,1.4,6.6,3.6c-1.3,1.4-2.4,3-3.4,4.7C102.2,125.1,101.1,125,100,125z
		 M108.1,119.1c-1.8-2.5-4.7-4.1-8.1-4.1c-3.3,0-6.2,1.6-8.1,4.1c-0.7-0.7-1.5-1.3-2.3-1.9c2.4-3.2,6.1-5.2,10.4-5.2s8,2.1,10.4,5.2
		C109.6,117.8,108.8,118.4,108.1,119.1z M112.1,116.1c-2.7-3.7-7.1-6.1-12.1-6.1c-5,0-9.3,2.4-12.1,6.1c-0.9-0.5-1.8-1-2.7-1.4
		c3.3-4.7,8.7-7.7,14.7-7.7c6.1,0,11.5,3.1,14.7,7.7C113.8,115.1,112.9,115.6,112.1,116.1z M100,100c-1.1,0-2.2,0.1-3.2,0.2
		c-1-1.7-2.1-3.2-3.4-4.7c1.4-2.1,3.9-3.6,6.6-3.6c2.8,0,5.2,1.4,6.6,3.6c-1.3,1.4-2.4,3-3.4,4.7C102.2,100.1,101.1,100,100,100z
		 M108.1,94.1c-1.8-2.5-4.7-4.1-8.1-4.1c-3.3,0-6.2,1.6-8.1,4.1c-0.7-0.7-1.5-1.3-2.3-1.9C92,89.1,95.7,87,100,87
		c4.2,0,8,2.1,10.4,5.2C109.6,92.8,108.8,93.4,108.1,94.1z M112.1,91.1C109.3,87.4,105,85,100,85c-5,0-9.3,2.4-12.1,6.1
		c-0.9-0.5-1.8-1-2.7-1.4c3.3-4.7,8.7-7.7,14.7-7.7c6.1,0,11.5,3.1,14.7,7.7C113.8,90.1,112.9,90.6,112.1,91.1z M100,75
		c-1.1,0-2.2,0.1-3.2,0.2c-1-1.7-2.1-3.2-3.4-4.7c1.4-2.1,3.9-3.6,6.6-3.6c2.8,0,5.2,1.4,6.6,3.6c-1.3,1.4-2.4,3-3.4,4.7
		C102.2,75.1,101.1,75,100,75z M108.1,69.1c-1.8-2.5-4.7-4.1-8.1-4.1c-3.3,0-6.2,1.6-8.1,4.1c-0.7-0.7-1.5-1.3-2.3-1.9
		C92,64.1,95.7,62,100,62c4.2,0,8,2.1,10.4,5.2C109.6,67.8,108.8,68.4,108.1,69.1z M112.1,66.1C109.3,62.4,105,60,100,60
		c-5,0-9.3,2.4-12.1,6.1c-0.9-0.5-1.8-1-2.7-1.4c3.3-4.7,8.7-7.7,14.7-7.7c6.1,0,11.5,3.1,14.7,7.7
		C113.8,65.1,112.9,65.6,112.1,66.1z M100,50c-1.1,0-2.2,0.1-3.2,0.2c-1-1.7-2.1-3.2-3.4-4.7c1.4-2.1,3.9-3.6,6.6-3.6
		c2.8,0,5.2,1.4,6.6,3.6c-1.3,1.4-2.4,3-3.4,4.7C102.2,50.1,101.1,50,100,50z M108.1,44.1c-1.8-2.5-4.7-4.1-8.1-4.1
		c-3.3,0-6.2,1.6-8.1,4.1c-0.7-0.7-1.5-1.3-2.3-1.9C92,39.1,95.7,37,100,37c4.2,0,8,2.1,10.4,5.2C109.6,42.8,108.8,43.4,108.1,44.1z
		 M112.1,41.1C109.3,37.4,105,35,100,35c-5,0-9.3,2.4-12.1,6.1c-0.9-0.5-1.8-1-2.7-1.4c3.3-4.7,8.7-7.7,14.7-7.7
		c6.1,0,11.5,3.1,14.7,7.7C113.8,40.1,112.9,40.6,112.1,41.1z M87.1,28.6c-2.7-3.7-7.1-6.1-12.1-6.1s-9.3,2.4-12.1,6.1
		c-0.9-0.5-1.8-1-2.7-1.4c3.3-4.7,8.7-7.7,14.7-7.7c6.1,0,11.5,3.1,14.7,7.7C88.8,27.6,87.9,28.1,87.1,28.6z M75,24.5
		c4.3,0,8,2.1,10.4,5.2c-0.8,0.6-1.6,1.2-2.3,1.9c-1.8-2.5-4.7-4.1-8.1-4.1c-3.3,0-6.2,1.6-8.1,4.1c-0.7-0.7-1.5-1.3-2.3-1.9
		C67,26.6,70.7,24.5,75,24.5z M75,29.5c2.8,0,5.2,1.4,6.6,3.6c-1.3,1.4-2.4,3-3.4,4.7c-1.1-0.1-2.1-0.2-3.2-0.2s-2.2,0.1-3.2,0.2
		c-1-1.7-2.1-3.2-3.4-4.7C69.8,30.9,72.2,29.5,75,29.5z M75,44.5c6.1,0,11.5,3.1,14.7,7.7c-0.9,0.4-1.8,0.9-2.7,1.4
		c-2.7-3.7-7.1-6.1-12.1-6.1s-9.3,2.4-12.1,6.1c-0.9-0.5-1.8-1-2.7-1.4C63.5,47.6,68.9,44.5,75,44.5z M75,49.5c4.3,0,8,2.1,10.4,5.2
		c-0.8,0.6-1.6,1.2-2.3,1.9c-1.8-2.5-4.7-4.1-8.1-4.1c-3.3,0-6.2,1.6-8.1,4.1c-0.7-0.7-1.5-1.3-2.3-1.9C67,51.6,70.7,49.5,75,49.5z
		 M75,54.5c2.8,0,5.2,1.4,6.6,3.6c-1.3,1.4-2.4,3-3.4,4.7c-1.1-0.1-2.1-0.2-3.2-0.2c-1.1,0-2.2,0.1-3.2,0.2c-1-1.7-2.1-3.2-3.4-4.7
		C69.8,55.9,72.2,54.5,75,54.5z M75,69.5c6.1,0,11.5,3.1,14.7,7.7c-0.9,0.4-1.8,0.9-2.7,1.4c-2.7-3.7-7.1-6.1-12.1-6.1
		s-9.3,2.4-12.1,6.1c-0.9-0.5-1.8-1-2.7-1.4C63.5,72.6,68.9,69.5,75,69.5z M75,74.5c4.3,0,8,2.1,10.4,5.2c-0.8,0.6-1.6,1.2-2.3,1.9
		c-1.8-2.5-4.7-4.1-8.1-4.1c-3.3,0-6.2,1.6-8.1,4.1c-0.7-0.7-1.5-1.3-2.3-1.9C67,76.6,70.7,74.5,75,74.5z M75,79.5
		c2.8,0,5.2,1.4,6.6,3.6c-1.3,1.4-2.4,3-3.4,4.7c-1.1-0.1-2.1-0.2-3.2-0.2c-1.1,0-2.2,0.1-3.2,0.2c-1-1.7-2.1-3.2-3.4-4.7
		C69.8,80.9,72.2,79.5,75,79.5z M75,94.5c6.1,0,11.5,3.1,14.7,7.7c-0.9,0.4-1.8,0.9-2.7,1.4c-2.7-3.7-7.1-6.1-12.1-6.1
		s-9.3,2.4-12.1,6.1c-0.9-0.5-1.8-1-2.7-1.4C63.5,97.6,68.9,94.5,75,94.5z M75,99.5c4.3,0,8,2.1,10.4,5.2c-0.8,0.6-1.6,1.2-2.3,1.9
		c-1.8-2.5-4.7-4.1-8.1-4.1c-3.3,0-6.2,1.6-8.1,4.1c-0.7-0.7-1.5-1.3-2.3-1.9C67,101.6,70.7,99.5,75,99.5z M75,104.5
		c2.8,0,5.2,1.4,6.6,3.6c-1.3,1.4-2.4,3-3.4,4.7c-1.1-0.1-2.1-0.2-3.2-0.2c-1.1,0-2.2,0.1-3.2,0.2c-1-1.7-2.1-3.2-3.4-4.7
		C69.8,105.9,72.2,104.5,75,104.5z M75,119.5c6.1,0,11.5,3.1,14.7,7.7c-0.9,0.4-1.8,0.9-2.7,1.4c-2.7-3.7-7.1-6.1-12.1-6.1
		s-9.3,2.4-12.1,6.1c-0.9-0.5-1.8-1-2.7-1.4C63.5,122.6,68.9,119.5,75,119.5z M75,124.5c4.3,0,8,2.1,10.4,5.2
		c-0.8,0.6-1.6,1.2-2.3,1.9c-1.8-2.5-4.7-4.1-8.1-4.1c-3.3,0-6.2,1.6-8.1,4.1c-0.7-0.7-1.5-1.3-2.3-1.9
		C67,126.6,70.7,124.5,75,124.5z M75,129.5c2.8,0,5.2,1.4,6.6,3.6c-1.3,1.4-2.4,3-3.4,4.7c-1.1-0.1-2.1-0.2-3.2-0.2
		c-1.1,0-2.2,0.1-3.2,0.2c-1-1.7-2.1-3.2-3.4-4.7C69.8,130.9,72.2,129.5,75,129.5z M75,144.5c6.1,0,11.5,3.1,14.7,7.7
		c-0.9,0.4-1.8,0.9-2.7,1.4c-2.7-3.7-7.1-6.1-12.1-6.1s-9.3,2.4-12.1,6.1c-0.9-0.5-1.8-1-2.7-1.4C63.5,147.6,68.9,144.5,75,144.5z
		 M75,149.5c4.3,0,8,2.1,10.4,5.2c-0.8,0.6-1.6,1.2-2.3,1.9c-1.8-2.5-4.7-4.1-8.1-4.1c-3.3,0-6.2,1.6-8.1,4.1
		c-0.7-0.7-1.5-1.3-2.3-1.9C67,151.6,70.7,149.5,75,149.5z M75,154.5c2.8,0,5.2,1.4,6.6,3.6c-1.3,1.4-2.4,3-3.4,4.7
		c-1.1-0.1-2.1-0.2-3.2-0.2s-2.2,0.1-3.2,0.2c-1-1.7-2.1-3.2-3.4-4.7C69.8,155.9,72.2,154.5,75,154.5z M96.8,175.2
		c-1-1.7-2.1-3.2-3.4-4.7c1.4-2.1,3.9-3.6,6.6-3.6c2.8,0,5.2,1.4,6.6,3.6c-1.3,1.4-2.4,3-3.4,4.7c-1.1-0.1-2.1-0.2-3.2-0.2
		C98.9,175,97.8,175.1,96.8,175.2z M125,162.5c-1.1,0-2.2,0.1-3.2,0.2c-1-1.7-2.1-3.2-3.4-4.7c1.4-2.1,3.9-3.6,6.6-3.6
		c2.8,0,5.2,1.4,6.6,3.6c-1.3,1.4-2.4,3-3.4,4.7C127.2,162.6,126.1,162.5,125,162.5z M133.1,156.6c-1.8-2.5-4.7-4.1-8.1-4.1
		c-3.3,0-6.2,1.6-8.1,4.1c-0.7-0.7-1.5-1.3-2.3-1.9c2.4-3.2,6.1-5.2,10.4-5.2c4.3,0,8,2.1,10.4,5.2
		C134.6,155.3,133.8,155.9,133.1,156.6z M137.1,153.6c-2.7-3.7-7.1-6.1-12.1-6.1c-5,0-9.3,2.4-12.1,6.1c-0.9-0.5-1.8-1-2.7-1.4
		c3.3-4.7,8.7-7.7,14.7-7.7c6.1,0,11.5,3.1,14.7,7.7C138.8,152.6,137.9,153.1,137.1,153.6z M125,137.5c-1.1,0-2.2,0.1-3.2,0.2
		c-1-1.7-2.1-3.2-3.4-4.7c1.4-2.1,3.9-3.6,6.6-3.6c2.8,0,5.2,1.4,6.6,3.6c-1.3,1.4-2.4,3-3.4,4.7C127.2,137.6,126.1,137.5,125,137.5
		z M133.1,131.6c-1.8-2.5-4.7-4.1-8.1-4.1c-3.3,0-6.2,1.6-8.1,4.1c-0.7-0.7-1.5-1.3-2.3-1.9c2.4-3.2,6.1-5.2,10.4-5.2
		c4.3,0,8,2.1,10.4,5.2C134.6,130.3,133.8,130.9,133.1,131.6z M137.1,128.6c-2.7-3.7-7.1-6.1-12.1-6.1c-5,0-9.3,2.4-12.1,6.1
		c-0.9-0.5-1.8-1-2.7-1.4c3.3-4.7,8.7-7.7,14.7-7.7c6.1,0,11.5,3.1,14.7,7.7C138.8,127.6,137.9,128.1,137.1,128.6z M125,112.5
		c-1.1,0-2.2,0.1-3.2,0.2c-1-1.7-2.1-3.2-3.4-4.7c1.4-2.1,3.9-3.6,6.6-3.6c2.8,0,5.2,1.4,6.6,3.6c-1.3,1.4-2.4,3-3.4,4.7
		C127.2,112.6,126.1,112.5,125,112.5z M133.1,106.6c-1.8-2.5-4.7-4.1-8.1-4.1c-3.3,0-6.2,1.6-8.1,4.1c-0.7-0.7-1.5-1.3-2.3-1.9
		c2.4-3.2,6.1-5.2,10.4-5.2c4.3,0,8,2.1,10.4,5.2C134.6,105.3,133.8,105.9,133.1,106.6z M137.1,103.6c-2.7-3.7-7.1-6.1-12.1-6.1
		c-5,0-9.3,2.4-12.1,6.1c-0.9-0.5-1.8-1-2.7-1.4c3.3-4.7,8.7-7.7,14.7-7.7c6.1,0,11.5,3.1,14.7,7.7
		C138.8,102.6,137.9,103.1,137.1,103.6z M125,87.5c-1.1,0-2.2,0.1-3.2,0.2c-1-1.7-2.1-3.2-3.4-4.7c1.4-2.1,3.9-3.6,6.6-3.6
		c2.8,0,5.2,1.4,6.6,3.6c-1.3,1.4-2.4,3-3.4,4.7C127.2,87.6,126.1,87.5,125,87.5z M133.1,81.6c-1.8-2.5-4.7-4.1-8.1-4.1
		c-3.3,0-6.2,1.6-8.1,4.1c-0.7-0.7-1.5-1.3-2.3-1.9c2.4-3.2,6.1-5.2,10.4-5.2c4.3,0,8,2.1,10.4,5.2
		C134.6,80.3,133.8,80.9,133.1,81.6z M137.1,78.6c-2.7-3.7-7.1-6.1-12.1-6.1c-5,0-9.3,2.4-12.1,6.1c-0.9-0.5-1.8-1-2.7-1.4
		c3.3-4.7,8.7-7.7,14.7-7.7c6.1,0,11.5,3.1,14.7,7.7C138.8,77.6,137.9,78.1,137.1,78.6z M125,62.5c-1.1,0-2.2,0.1-3.2,0.2
		c-1-1.7-2.1-3.2-3.4-4.7c1.4-2.1,3.9-3.6,6.6-3.6c2.8,0,5.2,1.4,6.6,3.6c-1.3,1.4-2.4,3-3.4,4.7C127.2,62.6,126.1,62.5,125,62.5z
		 M133.1,56.6c-1.8-2.5-4.7-4.1-8.1-4.1c-3.3,0-6.2,1.6-8.1,4.1c-0.7-0.7-1.5-1.3-2.3-1.9c2.4-3.2,6.1-5.2,10.4-5.2
		c4.3,0,8,2.1,10.4,5.2C134.6,55.3,133.8,55.9,133.1,56.6z M137.1,53.6c-2.7-3.7-7.1-6.1-12.1-6.1c-5,0-9.3,2.4-12.1,6.1
		c-0.9-0.5-1.8-1-2.7-1.4c3.3-4.7,8.7-7.7,14.7-7.7c6.1,0,11.5,3.1,14.7,7.7C138.8,52.6,137.9,53.1,137.1,53.6z M125,37.5
		c-1.1,0-2.2,0.1-3.2,0.2c-1-1.7-2.1-3.2-3.4-4.7c1.4-2.1,3.9-3.6,6.6-3.6c2.8,0,5.2,1.4,6.6,3.6c-1.3,1.4-2.4,3-3.4,4.7
		C127.2,37.6,126.1,37.5,125,37.5z M133.1,31.6c-1.8-2.5-4.7-4.1-8.1-4.1c-3.3,0-6.2,1.6-8.1,4.1c-0.7-0.7-1.5-1.3-2.3-1.9
		c2.4-3.2,6.1-5.2,10.4-5.2c4.3,0,8,2.1,10.4,5.2C134.6,30.3,133.8,30.9,133.1,31.6z M137.1,28.6c-2.7-3.7-7.1-6.1-12.1-6.1
		c-5,0-9.3,2.4-12.1,6.1c-0.9-0.5-1.8-1-2.7-1.4c3.3-4.7,8.7-7.7,14.7-7.7c6.1,0,11.5,3.1,14.7,7.7
		C138.8,27.6,137.9,28.1,137.1,28.6z M112.1,16.1C109.3,12.4,105,10,100,10c-5,0-9.3,2.4-12.1,6.1c-0.9-0.5-1.8-1-2.7-1.4
		C88.5,10.1,93.9,7,100,7c6.1,0,11.5,3.1,14.7,7.7C113.8,15.1,112.9,15.6,112.1,16.1z M62.1,16.1C59.3,12.4,55,10,50,10
		s-9.3,2.4-12.1,6.1c-0.9-0.5-1.8-1-2.7-1.4C38.5,10.1,43.9,7,50,7c6.1,0,11.5,3.1,14.7,7.7C63.8,15.1,62.9,15.6,62.1,16.1z M50,12
		c4.3,0,8,2.1,10.4,5.2c-0.8,0.6-1.6,1.2-2.3,1.9C56.2,16.6,53.3,15,50,15c-3.3,0-6.2,1.6-8.1,4.1c-0.7-0.7-1.5-1.3-2.3-1.9
		C42,14.1,45.7,12,50,12z M50,17c2.8,0,5.2,1.4,6.6,3.6c-1.3,1.4-2.4,3-3.4,4.7C52.2,25.1,51.1,25,50,25c-1.1,0-2.2,0.1-3.2,0.2
		c-1-1.7-2.1-3.2-3.4-4.7C44.8,18.4,47.2,17,50,17z M50,32c6.1,0,11.5,3.1,14.7,7.7c-0.9,0.4-1.8,0.9-2.7,1.4C59.3,37.4,55,35,50,35
		s-9.3,2.4-12.1,6.1c-0.9-0.5-1.8-1-2.7-1.4C38.5,35.1,43.9,32,50,32z M50,37c4.3,0,8,2.1,10.4,5.2c-0.8,0.6-1.6,1.2-2.3,1.9
		C56.2,41.6,53.3,40,50,40c-3.3,0-6.2,1.6-8.1,4.1c-0.7-0.7-1.5-1.3-2.3-1.9C42,39.1,45.7,37,50,37z M50,42c2.8,0,5.2,1.4,6.6,3.6
		c-1.3,1.4-2.4,3-3.4,4.7C52.2,50.1,51.1,50,50,50c-1.1,0-2.2,0.1-3.2,0.2c-1-1.7-2.1-3.2-3.4-4.7C44.8,43.4,47.2,42,50,42z M50,57
		c6.1,0,11.5,3.1,14.7,7.7c-0.9,0.4-1.8,0.9-2.7,1.4C59.3,62.4,55,60,50,60c-5,0-9.3,2.4-12.1,6.1c-0.9-0.5-1.8-1-2.7-1.4
		C38.5,60.1,43.9,57,50,57z M50,62c4.3,0,8,2.1,10.4,5.2c-0.8,0.6-1.6,1.2-2.3,1.9C56.2,66.6,53.3,65,50,65c-3.3,0-6.2,1.6-8.1,4.1
		c-0.7-0.7-1.5-1.3-2.3-1.9C42,64.1,45.7,62,50,62z M50,67c2.8,0,5.2,1.4,6.6,3.6c-1.3,1.4-2.4,3-3.4,4.7C52.2,75.1,51.1,75,50,75
		c-1.1,0-2.2,0.1-3.2,0.2c-1-1.7-2.1-3.2-3.4-4.7C44.8,68.4,47.2,67,50,67z M50,82c6.1,0,11.5,3.1,14.7,7.7
		c-0.9,0.4-1.8,0.9-2.7,1.4C59.3,87.4,55,85,50,85c-5,0-9.3,2.4-12.1,6.1c-0.9-0.5-1.8-1-2.7-1.4C38.5,85.1,43.9,82,50,82z M50,87
		c4.3,0,8,2.1,10.4,5.2c-0.8,0.6-1.6,1.2-2.3,1.9C56.2,91.6,53.3,90,50,90c-3.3,0-6.2,1.6-8.1,4.1c-0.7-0.7-1.5-1.3-2.3-1.9
		C42,89.1,45.7,87,50,87z M50,92c2.8,0,5.2,1.4,6.6,3.6c-1.3,1.4-2.4,3-3.4,4.7c-1.1-0.1-2.1-0.2-3.2-0.2c-1.1,0-2.2,0.1-3.2,0.2
		c-1-1.7-2.1-3.2-3.4-4.7C44.8,93.4,47.2,92,50,92z M50,107c6.1,0,11.5,3.1,14.7,7.7c-0.9,0.4-1.8,0.9-2.7,1.4
		C59.3,112.4,55,110,50,110c-5,0-9.3,2.4-12.1,6.1c-0.9-0.5-1.8-1-2.7-1.4C38.5,110.1,43.9,107,50,107z M50,112
		c4.3,0,8,2.1,10.4,5.2c-0.8,0.6-1.6,1.2-2.3,1.9c-1.8-2.5-4.7-4.1-8.1-4.1c-3.3,0-6.2,1.6-8.1,4.1c-0.7-0.7-1.5-1.3-2.3-1.9
		C42,114.1,45.7,112,50,112z M50,117c2.8,0,5.2,1.4,6.6,3.6c-1.3,1.4-2.4,3-3.4,4.7c-1.1-0.1-2.1-0.2-3.2-0.2
		c-1.1,0-2.2,0.1-3.2,0.2c-1-1.7-2.1-3.2-3.4-4.7C44.8,118.4,47.2,117,50,117z M50,132c6.1,0,11.5,3.1,14.7,7.7
		c-0.9,0.4-1.8,0.9-2.7,1.4C59.3,137.4,55,135,50,135c-5,0-9.3,2.4-12.1,6.1c-0.9-0.5-1.8-1-2.7-1.4C38.5,135.1,43.9,132,50,132z
		 M50,137c4.3,0,8,2.1,10.4,5.2c-0.8,0.6-1.6,1.2-2.3,1.9c-1.8-2.5-4.7-4.1-8.1-4.1c-3.3,0-6.2,1.6-8.1,4.1
		c-0.7-0.7-1.5-1.3-2.3-1.9C42,139.1,45.7,137,50,137z M50,142c2.8,0,5.2,1.4,6.6,3.6c-1.3,1.4-2.4,3-3.4,4.7
		c-1.1-0.1-2.1-0.2-3.2-0.2c-1.1,0-2.2,0.1-3.2,0.2c-1-1.7-2.1-3.2-3.4-4.7C44.8,143.4,47.2,142,50,142z M50,157
		c6.1,0,11.5,3.1,14.7,7.7c-0.9,0.4-1.8,0.9-2.7,1.4C59.3,162.4,55,160,50,160s-9.3,2.4-12.1,6.1c-0.9-0.5-1.8-1-2.7-1.4
		C38.5,160.1,43.9,157,50,157z M50,162c4.3,0,8,2.1,10.4,5.2c-0.8,0.6-1.6,1.2-2.3,1.9c-1.8-2.5-4.7-4.1-8.1-4.1
		c-3.3,0-6.2,1.6-8.1,4.1c-0.7-0.7-1.5-1.3-2.3-1.9C42,164.1,45.7,162,50,162z M50,167c2.8,0,5.2,1.4,6.6,3.6
		c-1.3,1.4-2.4,3-3.4,4.7c-1.1-0.1-2.1-0.2-3.2-0.2c-1.1,0-2.2,0.1-3.2,0.2c-1-1.7-2.1-3.2-3.4-4.7C44.8,168.4,47.2,167,50,167z
		 M66.9,181.6c-0.7-0.7-1.5-1.3-2.3-1.9c2.4-3.2,6.1-5.2,10.4-5.2s8,2.1,10.4,5.2c-0.8,0.6-1.6,1.2-2.3,1.9
		c-1.8-2.5-4.7-4.1-8.1-4.1C71.7,177.5,68.8,179.1,66.9,181.6z M116.9,181.6c-0.7-0.7-1.5-1.3-2.3-1.9c2.4-3.2,6.1-5.2,10.4-5.2
		c4.3,0,8,2.1,10.4,5.2c-0.8,0.6-1.6,1.2-2.3,1.9c-1.8-2.5-4.7-4.1-8.1-4.1C121.7,177.5,118.8,179.1,116.9,181.6z M150,175
		c-1.1,0-2.2,0.1-3.2,0.2c-1-1.7-2.1-3.2-3.4-4.7c1.4-2.1,3.9-3.6,6.6-3.6c2.8,0,5.2,1.4,6.6,3.6c-1.3,1.4-2.4,3-3.4,4.7
		C152.2,175.1,151.1,175,150,175z M158.1,169.1c-1.8-2.5-4.7-4.1-8.1-4.1c-3.3,0-6.2,1.6-8.1,4.1c-0.7-0.7-1.5-1.3-2.3-1.9
		c2.4-3.2,6.1-5.2,10.4-5.2s8,2.1,10.4,5.2C159.6,167.8,158.8,168.4,158.1,169.1z M162.1,166.1c-2.7-3.7-7.1-6.1-12.1-6.1
		s-9.3,2.4-12.1,6.1c-0.9-0.5-1.8-1-2.7-1.4c3.3-4.7,8.7-7.7,14.7-7.7s11.5,3.1,14.7,7.7C163.8,165.1,162.9,165.6,162.1,166.1z
		 M150,150c-1.1,0-2.2,0.1-3.2,0.2c-1-1.7-2.1-3.2-3.4-4.7c1.4-2.1,3.9-3.6,6.6-3.6c2.8,0,5.2,1.4,6.6,3.6c-1.3,1.4-2.4,3-3.4,4.7
		C152.2,150.1,151.1,150,150,150z M158.1,144.1c-1.8-2.5-4.7-4.1-8.1-4.1c-3.3,0-6.2,1.6-8.1,4.1c-0.7-0.7-1.5-1.3-2.3-1.9
		c2.4-3.2,6.1-5.2,10.4-5.2s8,2.1,10.4,5.2C159.6,142.8,158.8,143.4,158.1,144.1z M162.1,141.1c-2.7-3.7-7.1-6.1-12.1-6.1
		s-9.3,2.4-12.1,6.1c-0.9-0.5-1.8-1-2.7-1.4c3.3-4.7,8.7-7.7,14.7-7.7s11.5,3.1,14.7,7.7C163.8,140.1,162.9,140.6,162.1,141.1z
		 M150,125c-1.1,0-2.2,0.1-3.2,0.2c-1-1.7-2.1-3.2-3.4-4.7c1.4-2.1,3.9-3.6,6.6-3.6c2.8,0,5.2,1.4,6.6,3.6c-1.3,1.4-2.4,3-3.4,4.7
		C152.2,125.1,151.1,125,150,125z M158.1,119.1c-1.8-2.5-4.7-4.1-8.1-4.1c-3.3,0-6.2,1.6-8.1,4.1c-0.7-0.7-1.5-1.3-2.3-1.9
		c2.4-3.2,6.1-5.2,10.4-5.2s8,2.1,10.4,5.2C159.6,117.8,158.8,118.4,158.1,119.1z M162.1,116.1c-2.7-3.7-7.1-6.1-12.1-6.1
		s-9.3,2.4-12.1,6.1c-0.9-0.5-1.8-1-2.7-1.4c3.3-4.7,8.7-7.7,14.7-7.7s11.5,3.1,14.7,7.7C163.8,115.1,162.9,115.6,162.1,116.1z
		 M150,100c-1.1,0-2.2,0.1-3.2,0.2c-1-1.7-2.1-3.2-3.4-4.7c1.4-2.1,3.9-3.6,6.6-3.6c2.8,0,5.2,1.4,6.6,3.6c-1.3,1.4-2.4,3-3.4,4.7
		C152.2,100.1,151.1,100,150,100z M158.1,94.1c-1.8-2.5-4.7-4.1-8.1-4.1c-3.3,0-6.2,1.6-8.1,4.1c-0.7-0.7-1.5-1.3-2.3-1.9
		c2.4-3.2,6.1-5.2,10.4-5.2s8,2.1,10.4,5.2C159.6,92.8,158.8,93.4,158.1,94.1z M162.1,91.1C159.3,87.4,155,85,150,85
		s-9.3,2.4-12.1,6.1c-0.9-0.5-1.8-1-2.7-1.4c3.3-4.7,8.7-7.7,14.7-7.7s11.5,3.1,14.7,7.7C163.8,90.1,162.9,90.6,162.1,91.1z M150,75
		c-1.1,0-2.2,0.1-3.2,0.2c-1-1.7-2.1-3.2-3.4-4.7c1.4-2.1,3.9-3.6,6.6-3.6c2.8,0,5.2,1.4,6.6,3.6c-1.3,1.4-2.4,3-3.4,4.7
		C152.2,75.1,151.1,75,150,75z M158.1,69.1c-1.8-2.5-4.7-4.1-8.1-4.1c-3.3,0-6.2,1.6-8.1,4.1c-0.7-0.7-1.5-1.3-2.3-1.9
		c2.4-3.2,6.1-5.2,10.4-5.2s8,2.1,10.4,5.2C159.6,67.8,158.8,68.4,158.1,69.1z M162.1,66.1C159.3,62.4,155,60,150,60
		s-9.3,2.4-12.1,6.1c-0.9-0.5-1.8-1-2.7-1.4c3.3-4.7,8.7-7.7,14.7-7.7s11.5,3.1,14.7,7.7C163.8,65.1,162.9,65.6,162.1,66.1z M150,50
		c-1.1,0-2.2,0.1-3.2,0.2c-1-1.7-2.1-3.2-3.4-4.7c1.4-2.1,3.9-3.6,6.6-3.6c2.8,0,5.2,1.4,6.6,3.6c-1.3,1.4-2.4,3-3.4,4.7
		C152.2,50.1,151.1,50,150,50z M158.1,44.1c-1.8-2.5-4.7-4.1-8.1-4.1c-3.3,0-6.2,1.6-8.1,4.1c-0.7-0.7-1.5-1.3-2.3-1.9
		c2.4-3.2,6.1-5.2,10.4-5.2s8,2.1,10.4,5.2C159.6,42.8,158.8,43.4,158.1,44.1z M162.1,41.1C159.3,37.4,155,35,150,35
		s-9.3,2.4-12.1,6.1c-0.9-0.5-1.8-1-2.7-1.4c3.3-4.7,8.7-7.7,14.7-7.7s11.5,3.1,14.7,7.7C163.8,40.1,162.9,40.6,162.1,41.1z M150,25
		c-1.1,0-2.2,0.1-3.2,0.2c-1-1.7-2.1-3.2-3.4-4.7c1.4-2.1,3.9-3.6,6.6-3.6c2.8,0,5.2,1.4,6.6,3.6c-1.3,1.4-2.4,3-3.4,4.7
		C152.2,25.1,151.1,25,150,25z M158.1,19.1c-1.8-2.5-4.7-4.1-8.1-4.1c-3.3,0-6.2,1.6-8.1,4.1c-0.7-0.7-1.5-1.3-2.3-1.9
		c2.4-3.2,6.1-5.2,10.4-5.2s8,2.1,10.4,5.2C159.6,17.8,158.8,18.4,158.1,19.1z M162.1,16.1C159.3,12.4,155,10,150,10
		s-9.3,2.4-12.1,6.1c-0.9-0.5-1.8-1-2.7-1.4c3.3-4.7,8.7-7.7,14.7-7.7s11.5,3.1,14.7,7.7C163.8,15.1,162.9,15.6,162.1,16.1z
		 M125,4.5c2.8,0,5.2,1.4,6.6,3.6c-1.3,1.4-2.4,3-3.4,4.7c-1.1-0.1-2.1-0.2-3.2-0.2s-2.2,0.1-3.2,0.2c-1-1.7-2.1-3.2-3.4-4.7
		C119.8,5.9,122.2,4.5,125,4.5z M100,2c8.3,0,15.6,4.4,19.7,11.1c-1,0.2-2,0.5-3,0.9C113.1,8.6,106.9,5,100,5
		c-6.9,0-13.1,3.6-16.6,8.9c-1-0.3-2-0.6-3-0.9C84.4,6.4,91.7,2,100,2z M75,4.5c2.8,0,5.2,1.4,6.6,3.6c-1.3,1.4-2.4,3-3.4,4.7
		c-1.1-0.1-2.1-0.2-3.2-0.2s-2.2,0.1-3.2,0.2c-1-1.7-2.1-3.2-3.4-4.7C69.8,5.9,72.2,4.5,75,4.5z M50,2c8.3,0,15.6,4.4,19.7,11.1
		c-1,0.2-2,0.5-3,0.9C63.1,8.6,56.9,5,50,5s-13.1,3.6-16.6,8.9c-1-0.3-2-0.6-3-0.9C34.4,6.4,41.7,2,50,2z M18.4,8.1
		c1.4-2.1,3.9-3.6,6.6-3.6c2.8,0,5.2,1.4,6.6,3.6c-1.3,1.4-2.4,3-3.4,4.7c-1.1-0.1-2.1-0.2-3.2-0.2c-1.1,0-2.2,0.1-3.2,0.2
		C20.8,11,19.7,9.5,18.4,8.1z M25,14.5c8.3,0,15.6,4.4,19.7,11.1c-1,0.2-2,0.5-3,0.9c-3.6-5.4-9.7-8.9-16.6-8.9
		c-6.9,0-13.1,3.6-16.6,8.9c-1-0.3-2-0.6-3-0.9C9.4,18.9,16.7,14.5,25,14.5z M14.6,29.7c2.4-3.2,6.1-5.2,10.4-5.2
		c4.2,0,8,2.1,10.4,5.2c-0.8,0.6-1.6,1.2-2.3,1.9c-1.8-2.5-4.7-4.1-8.1-4.1c-3.3,0-6.2,1.6-8.1,4.1C16.2,30.9,15.4,30.3,14.6,29.7z
		 M18.4,33.1c1.4-2.1,3.9-3.6,6.6-3.6c2.8,0,5.2,1.4,6.6,3.6c-1.3,1.4-2.4,3-3.4,4.7c-1.1-0.1-2.1-0.2-3.2-0.2
		c-1.1,0-2.2,0.1-3.2,0.2C20.8,36,19.7,34.5,18.4,33.1z M25,39.5c8.3,0,15.6,4.4,19.7,11.1c-1,0.2-2,0.5-3,0.9
		c-3.6-5.4-9.7-8.9-16.6-8.9c-6.9,0-13.1,3.6-16.6,8.9c-1-0.3-2-0.6-3-0.9C9.4,43.9,16.7,39.5,25,39.5z M14.6,54.7
		c2.4-3.2,6.1-5.2,10.4-5.2c4.2,0,8,2.1,10.4,5.2c-0.8,0.6-1.6,1.2-2.3,1.9c-1.8-2.5-4.7-4.1-8.1-4.1c-3.3,0-6.2,1.6-8.1,4.1
		C16.2,55.9,15.4,55.3,14.6,54.7z M18.4,58.1c1.4-2.1,3.9-3.6,6.6-3.6c2.8,0,5.2,1.4,6.6,3.6c-1.3,1.4-2.4,3-3.4,4.7
		c-1.1-0.1-2.1-0.2-3.2-0.2c-1.1,0-2.2,0.1-3.2,0.2C20.8,61,19.7,59.5,18.4,58.1z M25,64.5c8.3,0,15.6,4.4,19.7,11.1
		c-1,0.2-2,0.5-3,0.9c-3.6-5.4-9.7-8.9-16.6-8.9c-6.9,0-13.1,3.6-16.6,8.9c-1-0.3-2-0.6-3-0.9C9.4,68.9,16.7,64.5,25,64.5z
		 M14.6,79.7c2.4-3.2,6.1-5.2,10.4-5.2c4.3,0,8,2.1,10.4,5.2c-0.8,0.6-1.6,1.2-2.3,1.9c-1.8-2.5-4.7-4.1-8.1-4.1
		c-3.3,0-6.2,1.6-8.1,4.1C16.2,80.9,15.4,80.3,14.6,79.7z M18.4,83.1c1.4-2.1,3.9-3.6,6.6-3.6c2.8,0,5.2,1.4,6.6,3.6
		c-1.3,1.4-2.4,3-3.4,4.7c-1.1-0.1-2.1-0.2-3.2-0.2c-1.1,0-2.2,0.1-3.2,0.2C20.8,86,19.7,84.5,18.4,83.1z M25,89.5
		c8.3,0,15.6,4.4,19.7,11.1c-1,0.2-2,0.5-3,0.9c-3.6-5.4-9.7-8.9-16.6-8.9c-6.9,0-13.1,3.6-16.6,8.9c-1-0.3-2-0.6-3-0.9
		C9.4,93.9,16.7,89.5,25,89.5z M14.6,104.7c2.4-3.2,6.1-5.2,10.4-5.2c4.3,0,8,2.1,10.4,5.2c-0.8,0.6-1.6,1.2-2.3,1.9
		c-1.8-2.5-4.7-4.1-8.1-4.1c-3.3,0-6.2,1.6-8.1,4.1C16.2,105.9,15.4,105.3,14.6,104.7z M18.4,108.1c1.4-2.1,3.9-3.6,6.6-3.6
		c2.8,0,5.2,1.4,6.6,3.6c-1.3,1.4-2.4,3-3.4,4.7c-1.1-0.1-2.1-0.2-3.2-0.2c-1.1,0-2.2,0.1-3.2,0.2C20.8,111,19.7,109.5,18.4,108.1z
		 M25,114.5c8.3,0,15.6,4.4,19.7,11.1c-1,0.2-2,0.5-3,0.9c-3.6-5.4-9.7-8.9-16.6-8.9c-6.9,0-13.1,3.6-16.6,8.9c-1-0.3-2-0.6-3-0.9
		C9.4,118.9,16.7,114.5,25,114.5z M14.6,129.7c2.4-3.2,6.1-5.2,10.4-5.2c4.3,0,8,2.1,10.4,5.2c-0.8,0.6-1.6,1.2-2.3,1.9
		c-1.8-2.5-4.7-4.1-8.1-4.1c-3.3,0-6.2,1.6-8.1,4.1C16.2,130.9,15.4,130.3,14.6,129.7z M18.4,133.1c1.4-2.1,3.9-3.6,6.6-3.6
		c2.8,0,5.2,1.4,6.6,3.6c-1.3,1.4-2.4,3-3.4,4.7c-1.1-0.1-2.1-0.2-3.2-0.2c-1.1,0-2.2,0.1-3.2,0.2C20.8,136,19.7,134.5,18.4,133.1z
		 M25,139.5c8.3,0,15.6,4.4,19.7,11.1c-1,0.2-2,0.5-3,0.9c-3.6-5.4-9.7-8.9-16.6-8.9c-6.9,0-13.1,3.6-16.6,8.9c-1-0.3-2-0.6-3-0.9
		C9.4,143.9,16.7,139.5,25,139.5z M14.6,154.7c2.4-3.2,6.1-5.2,10.4-5.2c4.3,0,8,2.1,10.4,5.2c-0.8,0.6-1.6,1.2-2.3,1.9
		c-1.8-2.5-4.7-4.1-8.1-4.1c-3.3,0-6.2,1.6-8.1,4.1C16.2,155.9,15.4,155.3,14.6,154.7z M18.4,158.1c1.4-2.1,3.9-3.6,6.6-3.6
		c2.8,0,5.2,1.4,6.6,3.6c-1.3,1.4-2.4,3-3.4,4.7c-1.1-0.1-2.1-0.2-3.2-0.2c-1.1,0-2.2,0.1-3.2,0.2C20.8,161,19.7,159.5,18.4,158.1z
		 M25,164.5c8.3,0,15.6,4.4,19.7,11.1c-1,0.2-2,0.5-3,0.9c-3.6-5.4-9.7-8.9-16.6-8.9c-6.9,0-13.1,3.6-16.6,8.9c-1-0.3-2-0.6-3-0.9
		C9.4,168.9,16.7,164.5,25,164.5z M14.6,179.7c2.4-3.2,6.1-5.2,10.4-5.2c4.3,0,8,2.1,10.4,5.2c-0.8,0.6-1.6,1.2-2.3,1.9
		c-1.8-2.5-4.7-4.1-8.1-4.1c-3.3,0-6.2,1.6-8.1,4.1C16.2,180.9,15.4,180.3,14.6,179.7z M21.8,187.7c-1-1.7-2.1-3.2-3.4-4.7
		c1.4-2.1,3.9-3.6,6.6-3.6c2.8,0,5.2,1.4,6.6,3.6c-1.3,1.4-2.4,3-3.4,4.7c-1.1-0.1-2.1-0.2-3.2-0.2
		C23.9,187.5,22.8,187.6,21.8,187.7z M58.1,194.1c-1.8-2.5-4.8-4.1-8.1-4.1c-3.3,0-6.3,1.6-8.1,4.1c-0.7-0.7-1.5-1.3-2.3-1.9
		c2.4-3.2,6.1-5.2,10.4-5.2s8,2.1,10.4,5.2C59.6,192.8,58.8,193.4,58.1,194.1z M71.8,187.7c-1-1.7-2.1-3.2-3.4-4.7
		c1.4-2.1,3.9-3.6,6.6-3.6c2.8,0,5.2,1.4,6.6,3.6c-1.3,1.4-2.4,3-3.4,4.7c-1.1-0.1-2.1-0.2-3.2-0.2
		C73.9,187.5,72.8,187.6,71.8,187.7z M108.1,194.1c-1.8-2.5-4.8-4.1-8.1-4.1c-3.3,0-6.3,1.6-8.1,4.1c-0.7-0.7-1.5-1.3-2.3-1.9
		c2.4-3.2,6.1-5.2,10.4-5.2c4.3,0,8,2.1,10.4,5.2C109.6,192.8,108.8,193.4,108.1,194.1z M121.8,187.7c-1-1.7-2.1-3.2-3.4-4.7
		c1.4-2.1,3.9-3.6,6.6-3.6c2.8,0,5.2,1.4,6.6,3.6c-1.3,1.4-2.4,3-3.4,4.7c-1.1-0.1-2.1-0.2-3.2-0.2S122.8,187.6,121.8,187.7z
		 M158.1,194.1c-1.8-2.5-4.8-4.1-8.1-4.1c-3.3,0-6.3,1.6-8.1,4.1c-0.7-0.7-1.5-1.3-2.3-1.9c2.4-3.2,6.1-5.2,10.4-5.2s8,2.1,10.4,5.2
		C159.6,192.8,158.8,193.4,158.1,194.1z M175,187.5c-1.1,0-2.2,0.1-3.2,0.2c-1-1.7-2.1-3.2-3.4-4.7c1.4-2.1,3.9-3.6,6.6-3.6
		c2.8,0,5.2,1.4,6.6,3.6c-1.3,1.4-2.4,3-3.4,4.7C177.2,187.6,176.1,187.5,175,187.5z M183.1,181.6c-1.8-2.5-4.7-4.1-8.1-4.1
		c-3.3,0-6.2,1.6-8.1,4.1c-0.7-0.7-1.5-1.3-2.3-1.9c2.4-3.2,6.1-5.2,10.4-5.2c4.3,0,8,2.1,10.4,5.2
		C184.6,180.3,183.8,180.9,183.1,181.6z M194.7,175.6c-1,0.2-2,0.5-3,0.9c-3.6-5.4-9.7-8.9-16.6-8.9s-13.1,3.6-16.6,8.9
		c-1-0.3-2-0.6-3-0.9c4-6.6,11.3-11.1,19.7-11.1S190.6,168.9,194.7,175.6z M175,162.5c-1.1,0-2.2,0.1-3.2,0.2
		c-1-1.7-2.1-3.2-3.4-4.7c1.4-2.1,3.9-3.6,6.6-3.6c2.8,0,5.2,1.4,6.6,3.6c-1.3,1.4-2.4,3-3.4,4.7C177.2,162.6,176.1,162.5,175,162.5
		z M183.1,156.6c-1.8-2.5-4.7-4.1-8.1-4.1c-3.3,0-6.2,1.6-8.1,4.1c-0.7-0.7-1.5-1.3-2.3-1.9c2.4-3.2,6.1-5.2,10.4-5.2
		c4.3,0,8,2.1,10.4,5.2C184.6,155.3,183.8,155.9,183.1,156.6z M194.7,150.6c-1,0.2-2,0.5-3,0.9c-3.6-5.4-9.7-8.9-16.6-8.9
		s-13.1,3.6-16.6,8.9c-1-0.3-2-0.6-3-0.9c4-6.6,11.3-11.1,19.7-11.1S190.6,143.9,194.7,150.6z M175,137.5c-1.1,0-2.2,0.1-3.2,0.2
		c-1-1.7-2.1-3.2-3.4-4.7c1.4-2.1,3.9-3.6,6.6-3.6c2.8,0,5.2,1.4,6.6,3.6c-1.3,1.4-2.4,3-3.4,4.7C177.2,137.6,176.1,137.5,175,137.5
		z M183.1,131.6c-1.8-2.5-4.7-4.1-8.1-4.1c-3.3,0-6.2,1.6-8.1,4.1c-0.7-0.7-1.5-1.3-2.3-1.9c2.4-3.2,6.1-5.2,10.4-5.2
		c4.3,0,8,2.1,10.4,5.2C184.6,130.3,183.8,130.9,183.1,131.6z M194.7,125.6c-1,0.2-2,0.5-3,0.9c-3.6-5.4-9.7-8.9-16.6-8.9
		s-13.1,3.6-16.6,8.9c-1-0.3-2-0.6-3-0.9c4-6.6,11.3-11.1,19.7-11.1S190.6,118.9,194.7,125.6z M175,112.5c-1.1,0-2.2,0.1-3.2,0.2
		c-1-1.7-2.1-3.2-3.4-4.7c1.4-2.1,3.9-3.6,6.6-3.6c2.8,0,5.2,1.4,6.6,3.6c-1.3,1.4-2.4,3-3.4,4.7C177.2,112.6,176.1,112.5,175,112.5
		z M183.1,106.6c-1.8-2.5-4.7-4.1-8.1-4.1c-3.3,0-6.2,1.6-8.1,4.1c-0.7-0.7-1.5-1.3-2.3-1.9c2.4-3.2,6.1-5.2,10.4-5.2
		c4.3,0,8,2.1,10.4,5.2C184.6,105.3,183.8,105.9,183.1,106.6z M194.7,100.6c-1,0.2-2,0.5-3,0.9c-3.6-5.4-9.7-8.9-16.6-8.9
		c-6.9,0-13.1,3.6-16.6,8.9c-1-0.3-2-0.6-3-0.9c4-6.6,11.3-11.1,19.7-11.1C183.3,89.5,190.6,93.9,194.7,100.6z M175,87.5
		c-1.1,0-2.2,0.1-3.2,0.2c-1-1.7-2.1-3.2-3.4-4.7c1.4-2.1,3.9-3.6,6.6-3.6c2.8,0,5.2,1.4,6.6,3.6c-1.3,1.4-2.4,3-3.4,4.7
		C177.2,87.6,176.1,87.5,175,87.5z M183.1,81.6c-1.8-2.5-4.7-4.1-8.1-4.1c-3.3,0-6.2,1.6-8.1,4.1c-0.7-0.7-1.5-1.3-2.3-1.9
		c2.4-3.2,6.1-5.2,10.4-5.2s8,2.1,10.4,5.2C184.6,80.3,183.8,80.9,183.1,81.6z M194.7,75.6c-1,0.2-2,0.5-3,0.9
		c-3.6-5.4-9.7-8.9-16.6-8.9s-13.1,3.6-16.6,8.9c-1-0.3-2-0.6-3-0.9c4-6.6,11.3-11.1,19.7-11.1S190.6,68.9,194.7,75.6z M175,62.5
		c-1.1,0-2.2,0.1-3.2,0.2c-1-1.7-2.1-3.2-3.4-4.7c1.4-2.1,3.9-3.6,6.6-3.6c2.8,0,5.2,1.4,6.6,3.6c-1.3,1.4-2.4,3-3.4,4.7
		C177.2,62.6,176.1,62.5,175,62.5z M183.1,56.6c-1.8-2.5-4.7-4.1-8.1-4.1c-3.3,0-6.2,1.6-8.1,4.1c-0.7-0.7-1.5-1.3-2.3-1.9
		c2.4-3.2,6.1-5.2,10.4-5.2s8,2.1,10.4,5.2C184.6,55.3,183.8,55.9,183.1,56.6z M194.7,50.6c-1,0.2-2,0.5-3,0.9
		c-3.6-5.4-9.7-8.9-16.6-8.9s-13.1,3.6-16.6,8.9c-1-0.3-2-0.6-3-0.9c4-6.6,11.3-11.1,19.7-11.1S190.6,43.9,194.7,50.6z M175,37.5
		c-1.1,0-2.2,0.1-3.2,0.2c-1-1.7-2.1-3.2-3.4-4.7c1.4-2.1,3.9-3.6,6.6-3.6c2.8,0,5.2,1.4,6.6,3.6c-1.3,1.4-2.4,3-3.4,4.7
		C177.2,37.6,176.1,37.5,175,37.5z M183.1,31.6c-1.8-2.5-4.7-4.1-8.1-4.1c-3.3,0-6.2,1.6-8.1,4.1c-0.7-0.7-1.5-1.3-2.3-1.9
		c2.4-3.2,6.1-5.2,10.4-5.2s8,2.1,10.4,5.2C184.6,30.3,183.8,30.9,183.1,31.6z M194.7,25.6c-1,0.2-2,0.5-3,0.9
		c-3.6-5.4-9.7-8.9-16.6-8.9s-13.1,3.6-16.6,8.9c-1-0.3-2-0.6-3-0.9c4-6.6,11.3-11.1,19.7-11.1S190.6,18.9,194.7,25.6z"/>
</g>
</svg>
