<?xml version="1.0" encoding="utf-8"?>
<!-- Generator: Adobe Illustrator 19.1.0, SVG Export Plug-In . SVG Version: 6.00 Build 0)  -->
<svg version="1.1" id="Layer_1" xmlns="http://www.w3.org/2000/svg" xmlns:xlink="http://www.w3.org/1999/xlink" x="0px" y="0px"
	 width="66.4px" height="28.9px" viewBox="0 0 66.4 28.9" style="enable-background:new 0 0 66.4 28.9;" xml:space="preserve">
<style type="text/css">
	.st0{clip-path:url(#SVGID_2_);fill:#CFCFCF;}
	.st1{clip-path:url(#SVGID_2_);fill:#1D4F90;}
</style>
<g>
	<defs>
		<rect id="SVGID_1_" width="66.4" height="28.9"/>
	</defs>
	<clipPath id="SVGID_2_">
		<use xlink:href="#SVGID_1_"  style="overflow:visible;"/>
	</clipPath>
	<path class="st0" d="M29.6,0c1.8,0,2.9,0.9,3.6,1.7C33.9,0.9,35,0,36.8,0c3.1,0,5.1,2.8,5.1,5.5c0,3.9-7.4,9-8.3,9.6
		c-0.1,0.1-0.3,0.1-0.5,0.1c-0.2,0-0.3,0-0.5-0.1c-0.8-0.6-8.3-5.7-8.3-9.6C24.5,2.8,26.6,0,29.6,0"/>
	<path class="st1" d="M16.3,11.6l0.1-1.4L18,11L16.3,11.6z M18.1,22L18,22c-0.6-0.4-1.5-1-2.6-1.7l0.8-7.7l1.3-0.5
		C17.6,13.9,18,19.9,18.1,22 M17.1,24.5l-6.6,2.4l-4.9-3.6L1.9,12.8c0.2,0.1,0.4,0.3,0.7,0.4c1.6,1,3.8,2.5,6.6,4.2
		c3.6,2.3,7.2,4.6,8.7,5.6L17.1,24.5z M7.8,27.9l-2.9-1.4l3-0.5l1.6,1.2L7.8,27.9z M7.6,11.2l7.1,6.3l-0.2,2.3
		c-2-1.3-4.5-2.9-6.7-4.3L7.6,11.2z M15.6,8.8l-0.8,7.5L6.6,9l0.2,5.8c-3.6-2.3-6.7-4.3-6.8-4.4l4.9,13.4l1.9,1.4L1.6,26l6.1,2.8
		l2.7-1l0.9-0.3l6.5-2.4l1.3-2.5c0,0-0.5-9.3-0.7-10.9l2.1-0.8L15.6,8.8z"/>
	<path class="st1" d="M50.2,11.6L50,10.2L48.4,11L50.2,11.6z M48.3,22L48.3,22c0.7-0.4,1.6-1,2.7-1.6l-0.8-7.7l-1.3-0.5
		C48.8,13.9,48.5,19.9,48.3,22 M49.3,24.5l6.6,2.4l4.9-3.6l3.8-10.5c-0.2,0.1-0.4,0.3-0.7,0.4c-1.6,1-3.8,2.5-6.6,4.2
		c-3.6,2.3-7.2,4.6-8.7,5.6L49.3,24.5z M58.7,27.9l2.9-1.4l-3-0.5L57,27.2L58.7,27.9z M58.8,11.2l-7.1,6.3l0.2,2.3
		c2-1.3,4.5-2.9,6.7-4.3L58.8,11.2z M50.8,8.8l0.8,7.5L59.9,9l-0.2,5.8c3.6-2.3,6.7-4.3,6.8-4.4l-4.9,13.4l-1.9,1.4l5.1,0.8
		l-6.1,2.8l-2.7-1l-0.9-0.3l-6.5-2.4l-1.3-2.5c0,0,0.5-9.3,0.7-10.9l-2.1-0.8L50.8,8.8z"/>
</g>
</svg>
