<?xml version="1.0" encoding="utf-8"?>
<!-- Generator: Adobe Illustrator 19.1.0, SVG Export Plug-In . SVG Version: 6.00 Build 0)  -->
<svg version="1.1" id="Layer_1" xmlns="http://www.w3.org/2000/svg" xmlns:xlink="http://www.w3.org/1999/xlink" x="0px" y="0px"
	 viewBox="0 0 100 100" style="enable-background:new 0 0 100 100;" xml:space="preserve">
<style type="text/css">
	.st0{fill-rule:evenodd;clip-rule:evenodd;fill:#255EA0;}
</style>
<path class="st0" d="M75.7,29.3L64.6,52L46.8,19.6l-6,18.5c-8.8-11.5-16.2-21.2-16.4-21.6l0,47.9l4.4,6.5l-17.2-3.3l16,16h9.6h3.2
	h23.2l7-6.4c0,0,9-29.8,10.5-35.1h7.4L75.7,29.3z M47.5,27.6l15.3,27.9l-3.4,7c-4.9-6.4-10.8-14.1-16.4-21.3L47.5,27.6z M28.9,80.3
	l-7.7-7.6l10,1.9l3.8,5.7H28.9z M62.4,80.3H38.9L27.6,63.4l0-37.3c0.5,0.7,1.1,1.4,1.7,2.2c3.9,5.1,9.2,12.1,15.9,20.8
	C53.8,60.5,62.6,72,66.3,76.7L62.4,80.3z M68.3,73.7l-0.3,0c-1.6-2-3.8-4.9-6.3-8.2L73,42h4.8C76.2,47.7,70.4,66.8,68.3,73.7z
	 M74.6,38.8l2-4.1l4.2,4.1H74.6z"/>
</svg>
