<?xml version="1.0" encoding="utf-8"?>
<!-- Generator: Adobe Illustrator 19.1.0, SVG Export Plug-In . SVG Version: 6.00 Build 0)  -->
<svg version="1.1" id="Layer_1" xmlns="http://www.w3.org/2000/svg" xmlns:xlink="http://www.w3.org/1999/xlink" x="0px" y="0px"
	 viewBox="0 0 40 40" style="enable-background:new 0 0 40 40;" xml:space="preserve">
<style type="text/css">
	.st0{fill:#1D4189;}
</style>
<g>
	<path class="st0" d="M23.4,12.1l-9.7,18.1h-2.4v-12c0.6,0.8,1.1,1.4,1.4,1.8l1.5,1.8l1.5-1.8c1-1.2,4.1-5,4.7-7.9H23.4z"/>
	<polygon class="st0" points="17.3,30.2 29.4,30.2 29.4,28.5 20.7,23.8 	"/>
	<polygon class="st0" points="27,12.1 22.2,21 29.4,24.9 29.4,12.1 	"/>
	<g>
		<path class="st0" d="M14.2,6.8c-2.4,0-4.3,1.9-4.3,4.3c0,2.4,4.3,7.5,4.3,7.5s4.3-5.1,4.3-7.5C18.6,8.8,16.7,6.8,14.2,6.8z
			 M14.2,11.9c-0.9,0-1.7-0.8-1.7-1.7c0-0.9,0.8-1.7,1.7-1.7c0.9,0,1.7,0.8,1.7,1.7C16,11.2,15.2,11.9,14.2,11.9z"/>
	</g>
</g>
</svg>
