<?xml version="1.0" encoding="utf-8"?>
<!-- Generator: Adobe Illustrator 19.1.0, SVG Export Plug-In . SVG Version: 6.00 Build 0)  -->
<svg version="1.1" id="Layer_1" xmlns="http://www.w3.org/2000/svg" xmlns:xlink="http://www.w3.org/1999/xlink" x="0px" y="0px"
	 viewBox="0 0 40 40" style="enable-background:new 0 0 40 40;" xml:space="preserve">
<style type="text/css">
	.st0{fill:#1D4189;}
</style>
<path class="st0" d="M14,21.8c0-0.5-0.2-0.9-0.5-1.3c-0.3-0.3-0.8-0.5-1.3-0.5s-0.9,0.2-1.3,0.5c-0.3,0.3-0.5,0.8-0.5,1.3
	c0,0.5,0.2,0.9,0.5,1.3c0.3,0.3,0.8,0.5,1.3,0.5s0.9-0.2,1.3-0.5S14,22.3,14,21.8z M14.4,18.2h11.3l-1-4c0-0.1-0.1-0.1-0.2-0.2
	S24.3,14,24.3,14h-8.5c-0.1,0-0.1,0-0.2,0.1s-0.1,0.1-0.2,0.2L14.4,18.2z M29.6,21.8c0-0.5-0.2-0.9-0.5-1.3
	c-0.3-0.3-0.8-0.5-1.3-0.5s-0.9,0.2-1.3,0.5c-0.3,0.3-0.5,0.8-0.5,1.3c0,0.5,0.2,0.9,0.5,1.3c0.3,0.3,0.8,0.5,1.3,0.5
	s0.9-0.2,1.3-0.5C29.4,22.7,29.6,22.3,29.6,21.8z M31.4,20.7V25c0,0.1,0,0.2-0.1,0.3c-0.1,0.1-0.2,0.1-0.3,0.1H30v1.4
	c0,0.6-0.2,1.1-0.6,1.5s-0.9,0.6-1.5,0.6c-0.6,0-1.1-0.2-1.5-0.6s-0.6-0.9-0.6-1.5v-1.4H14.3v1.4c0,0.6-0.2,1.1-0.6,1.5
	c-0.4,0.4-0.9,0.6-1.5,0.6c-0.6,0-1.1-0.2-1.5-0.6c-0.4-0.4-0.6-0.9-0.6-1.5v-1.4H9c-0.1,0-0.2,0-0.3-0.1c-0.1-0.1-0.1-0.2-0.1-0.3
	v-4.3c0-0.7,0.2-1.3,0.7-1.8s1.1-0.7,1.8-0.7h0.3l1.2-4.7c0.2-0.7,0.6-1.3,1.2-1.7c0.6-0.5,1.3-0.7,2-0.7h8.5c0.7,0,1.4,0.2,2,0.7
	c0.6,0.5,1,1.1,1.2,1.7l1.2,4.7h0.3c0.7,0,1.3,0.2,1.8,0.7S31.4,20,31.4,20.7L31.4,20.7z"/>
</svg>
